<svg width="48" height="48" viewBox="0 0 48 48" fill="none" xmlns="http://www.w3.org/2000/svg">
<circle cx="24" cy="24" r="24" fill="#191685"/>
<path d="M24.0001 10.6667C20.5067 10.6667 17.6667 13.5067 17.6667 17.0001C17.6667 20.4267 20.3467 23.2001 23.8401 23.3201C23.9467 23.3067 24.0534 23.3067 24.1334 23.3201C24.1601 23.3201 24.1734 23.3201 24.2001 23.3201C24.2134 23.3201 24.2134 23.3201 24.2267 23.3201C27.6401 23.2001 30.3201 20.4267 30.3334 17.0001C30.3334 13.5067 27.4934 10.6667 24.0001 10.6667Z" fill="#FAF9F8"/>
<path d="M30.7733 26.8666C27.0533 24.3866 20.9866 24.3866 17.2399 26.8666C15.5466 27.9999 14.6133 29.5333 14.6133 31.1733C14.6133 32.8133 15.5466 34.3333 17.2266 35.4533C19.0933 36.7066 21.5466 37.3333 23.9999 37.3333C26.4533 37.3333 28.9066 36.7066 30.7733 35.4533C32.4533 34.3199 33.3866 32.7999 33.3866 31.1466C33.3733 29.5066 32.4533 27.9866 30.7733 26.8666Z" fill="#FAF9F8"/>
</svg>
