<svg width="156" height="180" viewBox="0 0 156 180" fill="none" xmlns="http://www.w3.org/2000/svg">
<g filter="url(#filter0_b_316_3515)">
<rect y="24" width="156" height="156" rx="32" fill="#5570FD" fill-opacity="0.2"/>
<path d="M6 58C6 42.536 18.536 30 34 30H54V78H6V58Z" fill="#191685"/>
<rect x="54" y="30" width="48" height="48" fill="#191685"/>
<path d="M102 30H122C137.464 30 150 42.536 150 58V78H102V30Z" fill="#191685"/>
<rect x="14.7071" y="44.4009" width="8.05096" height="35.2038" rx="4.02548" transform="rotate(-45 14.7071 44.4009)" fill="#F3339E" stroke="#C20074" stroke-linecap="round"/>
<rect x="39.6002" y="38.7071" width="8.05096" height="35.2038" rx="4.02548" transform="rotate(45 39.6002 38.7071)" fill="#F3339E" stroke="#C20074" stroke-linecap="round"/>
<rect x="24.3027" y="53.2891" width="7.04932" height="1.01094" transform="rotate(-45 24.3027 53.2891)" fill="#F3339E"/>
<rect x="30" y="58.9844" width="7.04932" height="1.01094" transform="rotate(-45 30 58.9844)" fill="#F3339E"/>
<line x1="102.25" y1="34.5" x2="102.25" y2="77.5" stroke="#E9E9E9" stroke-width="0.5" stroke-linecap="round" stroke-dasharray="3 3"/>
<line x1="54.25" y1="34.25" x2="54.25" y2="77.25" stroke="#E9E9E9" stroke-width="0.5" stroke-linecap="round" stroke-dasharray="3 3"/>
<line x1="9.25" y1="77.75" x2="146.75" y2="77.75" stroke="#E9E9E9" stroke-width="0.5" stroke-linecap="round" stroke-dasharray="3 3"/>
<path d="M6 78H54V126H6V78Z" fill="#191685"/>
<rect x="54" y="78" width="48" height="48" fill="#191685"/>
<path d="M102 78H150V126H102V78Z" fill="#191685"/>
<line x1="102.25" y1="78.75" x2="102.25" y2="125.75" stroke="#E9E9E9" stroke-width="0.5" stroke-linecap="round" stroke-dasharray="3 3"/>
<line x1="54.25" y1="78.5" x2="54.25" y2="125.5" stroke="#E9E9E9" stroke-width="0.5" stroke-linecap="round" stroke-dasharray="3 3"/>
<rect x="62.7071" y="92.4009" width="8.05096" height="35.2038" rx="4.02548" transform="rotate(-45 62.7071 92.4009)" fill="#F3339E" stroke="#C20074" stroke-linecap="round"/>
<rect x="87.6002" y="86.7071" width="8.05096" height="35.2038" rx="4.02548" transform="rotate(45 87.6002 86.7071)" fill="#F3339E" stroke="#C20074" stroke-linecap="round"/>
<rect x="72.3027" y="101.289" width="7.04932" height="1.01094" transform="rotate(-45 72.3027 101.289)" fill="#F3339E"/>
<rect x="78" y="106.984" width="7.04932" height="1.01094" transform="rotate(-45 78 106.984)" fill="#F3339E"/>
<circle cx="126" cy="102" r="15.5" fill="#F9BD13" stroke="#AF7E00" stroke-linecap="round"/>
<circle cx="126" cy="102" r="7.5" fill="#191685" stroke="#AF7E00" stroke-linecap="round"/>
<line x1="10.25" y1="125.75" x2="145.75" y2="125.75" stroke="#E9E9E9" stroke-width="0.5" stroke-linecap="round" stroke-dasharray="3 3"/>
<path d="M6 126H54V174H34C18.536 174 6 161.464 6 146V126Z" fill="#191685"/>
<rect x="54" y="126" width="48" height="48" fill="#191685"/>
<path d="M102 126H150V146C150 161.464 137.464 174 122 174H102V126Z" fill="#191685"/>
<circle cx="78" cy="150" r="15.5" fill="#F9BD13" stroke="#AF7E00" stroke-linecap="round"/>
<circle cx="78" cy="150" r="7.5" fill="#191685" stroke="#AF7E00" stroke-linecap="round"/>
<line x1="102.25" y1="126.5" x2="102.25" y2="169.5" stroke="#E9E9E9" stroke-width="0.5" stroke-linecap="round" stroke-dasharray="3 3"/>
<line x1="54.25" y1="126.5" x2="54.25" y2="169.5" stroke="#E9E9E9" stroke-width="0.5" stroke-linecap="round" stroke-dasharray="3 3"/>
<rect x="110.707" y="140.401" width="8.05096" height="35.2038" rx="4.02548" transform="rotate(-45 110.707 140.401)" fill="#F3339E" stroke="#C20074" stroke-linecap="round"/>
<rect x="135.6" y="134.707" width="8.05096" height="35.2038" rx="4.02548" transform="rotate(45 135.6 134.707)" fill="#F3339E" stroke="#C20074" stroke-linecap="round"/>
<rect x="120.303" y="149.289" width="7.04932" height="1.01094" transform="rotate(-45 120.303 149.289)" fill="#F3339E"/>
<rect x="126" y="154.984" width="7.04932" height="1.01094" transform="rotate(-45 126 154.984)" fill="#F3339E"/>
<rect x="14.5" y="40" width="2" height="177" rx="1" transform="rotate(-45 14.5 40)" fill="#FF99F6"/>
<rect x="0.25" y="24.25" width="155.5" height="155.5" rx="31.75" stroke="#4B61E9" stroke-width="0.5" stroke-linecap="round" stroke-linejoin="round"/>
</g>
<path d="M73.12 0.289062H73.2389H73.3566H73.4731H73.5885H73.7026H73.8155H73.9272H74.0378H74.1472H74.2554H74.3625H74.4683H74.5731H74.6767H74.7791H74.8804H74.9004H74.9005H74.9009H74.9012H74.9019H74.9025H74.9035H74.9043H74.9056H74.9068H74.9083H74.9098H74.9115H74.9134H74.9152H74.9176H74.9195H74.9224H74.9243H74.9278H74.9296H74.9339H74.9355H74.9405H74.9418H74.9478H74.9487H74.9557H74.9561H74.964H74.9643H74.9723H74.9735H74.9806H74.9812H74.9833H74.9905H74.9938H75.0004H75.0049H75.0107H75.0167H75.0214H75.0291H75.0327H75.0422H75.0443H75.056H75.0565H75.0691H75.0705H75.0796H75.0821H75.0856H75.0956H75.1015H75.1095H75.118H75.1239H75.1352H75.1387H75.1531H75.1539H75.1695H75.1718H75.1775H75.1855H75.1911H75.202H75.2112H75.2188H75.2319H75.2361H75.2534H75.2537H75.2717H75.2743H75.2757H75.2901H75.2986H75.3089H75.3223H75.3281H75.3468H75.3476H75.3675H75.37H75.372H75.3877H75.3979H75.4083H75.4246H75.4293H75.4506H75.4521H75.4645H75.4722H75.4803H75.4942H75.5093H75.5165H75.5391H75.558H75.5621H75.5697H75.5854H75.601H75.6089H75.6328H75.6332H75.6503H75.657H75.6661H75.6815H75.6999H75.7063H75.7313H75.7345H75.7416H75.7567H75.7698H75.7823H75.806H75.8082H75.8317H75.8344H75.843H75.8608H75.8808H75.8875H75.9144H75.9195H75.9208H75.9416H75.959H75.969H75.9967H75.9993H76.0088H76.0246H76.0405H76.0528H76.0811H76.0826H76.0957H76.1097H76.1254H76.1385H76.1675H76.1692H76.1815H76.1967H76.2138H76.2261H76.2557H76.2593H76.2662H76.2855H76.3056H76.3155H76.3457H76.3499H76.3529H76.376H76.401H76.4066H76.4326H76.4372H76.45H76.4681H76.4991H76.4999H76.5142H76.5302H76.5507H76.5616H76.593H76.5947H76.6024H76.6246H76.655H76.6563H76.6742H76.6881H76.7085H76.7201H76.7522H76.7526H76.763H76.7844H76.8167H76.8183H76.83H76.8491H76.8746H76.8817H76.9064H76.9143H76.9318H76.947H76.9798H76.9818H76.99H77.0126H77.0456H77.0491H77.0561H77.0786H77.1091H77.1117H77.1294H77.1448H77.1701H77.178H77.2017H77.2113H77.2321H77.2445H77.273H77.2779H77.295H77.3113H77.3433H77.3447H77.3589H77.3781H77.4116H77.4126H77.4237H77.445H77.4785H77.481H77.4895H77.512H77.5455H77.5483H77.5563H77.579H77.6125H77.6146H77.6241H77.646H77.6795H77.68H77.6929H77.7129H77.7444H77.7463H77.7627H77.7797H77.8078H77.8131H77.8334H77.8464H77.8703H77.8797H77.9052H77.9129H77.9318H77.9461H77.978H77.9792H77.9923H78.0122H78.0452H78.0518H78.0519H78.0781H78.1106H78.1109H78.1266H78.1437H78.1683H78.1763H78.2024H78.2089H78.2251H78.2414H78.2737H78.2793H78.2809H78.306H78.3358H78.3381H78.3572H78.3701H78.3899H78.402H78.4338H78.4361H78.4429H78.4655H78.4951H78.497H78.5161H78.5284H78.5464H78.5596H78.5907H78.5968H78.5971H78.6216H78.6463H78.6523H78.6792H78.6829H78.6949H78.7134H78.7426H78.7436H78.7623H78.7737H78.7894H78.8036H78.8333H78.8353H78.8465H78.8628H78.8804H78.8921H78.9212H78.9246H78.9318H78.9501H78.968H78.9788H79.0072H79.0104H79.0181H79.0355H79.0521H79.0635H79.0913H79.0929H79.1055H79.1188H79.1328H79.1461H79.1719H79.1732H79.194H79.2H79.2102H79.2265H79.2476H79.2528H79.2788H79.2836H79.2843H79.3046H79.3201H79.3301H79.355H79.3553H79.3742H79.3802H79.3892H79.4048H79.4226H79.4291H79.4532H79.4552H79.466H79.4769H79.4869H79.5003H79.5179H79.5234H79.5462H79.5481H79.5588H79.5686H79.5776H79.5908H79.6062H79.6126H79.634H79.6341H79.6528H79.6551H79.6612H79.6759H79.6876H79.6963H79.7132H79.7164H79.7361H79.738H79.7479H79.7554H79.7621H79.7744H79.7854H79.793H79.8081H79.8112H79.829H79.8299H79.8441H79.8464H79.8511H79.8634H79.8715H79.8801H79.8913H79.8963H79.9103H79.9121H79.9275H79.9286H79.9414H79.9425H79.9462H79.957H79.963H79.9711H79.9792H79.9848H79.9948H79.9981H80.0096H80.0109H80.0233H80.0237H80.0352H80.0372H80.0398H80.0466H80.05H80.0576H80.0621H80.0681H80.0736H80.0782H80.0844H80.0877H80.0946H80.0968H80.1041H80.1054H80.113H80.1135H80.1211H80.1213H80.1282H80.1289H80.1348H80.1359H80.1394H80.1409H80.1423H80.1465H80.148H80.1516H80.1531H80.1561H80.1577H80.1601H80.1616H80.1635H80.1649H80.1665H80.1677H80.1688H80.1698H80.1707H80.1714H80.1719H80.1724H80.1727H80.1728H80.2401H80.3419H80.4449H80.549H80.6543H80.7607H80.8683H80.9771H81.087H81.1981H81.3104H81.4239H81.5386H81.6544H81.7715H81.8898H82.0093H82.13H82.2519H82.3751H82.4994H82.625H82.7519H82.88C88.3081 0.289062 91.7082 1.82986 94.2575 4.12124C96.3691 6.0191 97.9038 8.43322 99.5231 10.9803C99.8754 11.5346 100.232 12.0951 100.599 12.6579C102.644 15.7929 105.005 18.9616 108.844 21.3395C111.299 22.8597 114.346 24.0498 118.284 24.7109H118.047H117.798H117.547H117.294H117.038H116.781H116.522H116.261H115.998H115.733H115.466H115.197H114.927H114.654H114.38H114.104H113.826H113.546H113.265H112.981H112.697H112.41H112.121H111.831H111.54H111.246H110.951H110.655H110.357H110.057H109.756H109.453H109.148H108.842H108.535H108.226H107.916H107.604H107.291H106.976H106.66H106.343H106.024H105.704H105.382H105.06H104.736H104.41H104.084H103.756H103.427H103.097H102.766H102.433H102.099H101.764H101.428H101.091H100.753H100.414H100.074H99.7324H99.39H99.0467H98.7024H98.3571H98.0108H97.6637H97.3156H96.9666H96.6167H96.2659H95.9143H95.5619H95.2087H94.8546H94.4998H94.1442H93.7879H93.4308H93.0731H92.7146H92.3555H91.9956H91.6352H91.2741H90.9124H90.5501H90.1873H89.8238H89.4599H89.0954H88.7304H88.3649H87.9989H87.6325H87.2656H86.8983H86.5306H86.1625H85.794H85.4252H85.056H84.6865H84.3168H83.9467H83.5763H83.2057H82.8349H82.4638H82.0925H81.7211H81.3495H80.9777H80.6058H80.2337H79.8616H79.4894H79.1171H78.7447H78.3724H78H77.6276H77.2552H76.8829H76.5106H76.1384H75.7662H75.3942H75.0223H74.6505H74.2789H73.9074H73.5362H73.1651H72.7943H72.4236H72.0533H71.6832H71.3134H70.9439H70.5748H70.2059H69.8375H69.4694H69.1017H68.7344H68.3675H68.0011H67.6351H67.2696H66.9046H66.5401H66.1761H65.8127H65.4498H65.0876H64.7259H64.3648H64.0043H63.6445H63.2854H62.9269H62.5691H62.2121H61.8557H61.5002H61.1453H60.7913H60.4381H60.0856H59.734H59.3833H59.0334H58.6844H58.3363H57.9891H57.6429H57.2976H56.9533H56.6099H56.2676H55.9263H55.586H55.2467H54.9086H54.5715H54.2355H53.9007H53.567H53.2344H52.903H52.5728H52.2438H51.916H51.5895H51.2642H50.9402H50.6175H50.2961H49.976H49.6572H49.3399H49.0238H48.7092H48.396H48.0842H47.7739H47.465H47.1576H46.8517H46.5473H46.2444H45.9431H45.6433H45.3451H45.0486H44.7536H44.4602H44.1685H43.8785H43.5901H43.3035H43.0185H42.7353H42.4538H42.1742H41.8962H41.6201H41.3458H41.0734H40.8027H40.534H40.2671H40.0022H39.7391H39.478H39.2188H38.9617H38.7065H38.4533H38.2021H37.9529H37.7508C41.7268 24.05 44.8411 22.8603 47.3728 21.3416C51.3335 18.9658 53.8416 15.7998 55.9861 12.6631C56.4514 11.9826 56.8985 11.3054 57.3387 10.6387C58.9373 8.21741 60.4454 5.93321 62.4075 4.11846C64.8866 1.82557 68.0908 0.289062 73.12 0.289062Z" fill="#5570FD" fill-opacity="0.2" stroke="#4B61E9" stroke-width="0.578125"/>
<path d="M66.625 13.0859C67.1042 13.0859 67.5156 12.9453 67.8594 12.6641C68.2083 12.3828 68.3828 11.9792 68.3828 11.4531C68.3828 11.0521 68.2448 10.7083 67.9688 10.4219C67.6927 10.1302 67.3203 9.98438 66.8516 9.98438C66.5339 9.98438 66.2708 10.0286 66.0625 10.1172C65.8594 10.2057 65.6979 10.3229 65.5781 10.4688C65.4583 10.6146 65.3438 10.8021 65.2344 11.0312C65.1302 11.2604 65.0339 11.4766 64.9453 11.6797C64.8932 11.7891 64.7995 11.875 64.6641 11.9375C64.5286 12 64.3724 12.0312 64.1953 12.0312C63.987 12.0312 63.7943 11.9479 63.6172 11.7812C63.4453 11.6094 63.3594 11.3828 63.3594 11.1016C63.3594 10.8307 63.4401 10.5469 63.6016 10.25C63.7682 9.94792 64.0078 9.66146 64.3203 9.39062C64.638 9.11979 65.0312 8.90365 65.5 8.74219C65.9688 8.57552 66.4922 8.49219 67.0703 8.49219C67.5755 8.49219 68.0365 8.5625 68.4531 8.70312C68.8698 8.83854 69.2318 9.03646 69.5391 9.29688C69.8464 9.55729 70.0781 9.85938 70.2344 10.2031C70.3906 10.5469 70.4688 10.9167 70.4688 11.3125C70.4688 11.8333 70.3542 12.2812 70.125 12.6562C69.901 13.026 69.5781 13.388 69.1562 13.7422C69.5625 13.9609 69.9036 14.2109 70.1797 14.4922C70.4609 14.7734 70.6719 15.0859 70.8125 15.4297C70.9531 15.7682 71.0234 16.1354 71.0234 16.5312C71.0234 17.0052 70.9271 17.4635 70.7344 17.9062C70.5469 18.349 70.2682 18.7448 69.8984 19.0938C69.5286 19.4375 69.0885 19.7083 68.5781 19.9062C68.0729 20.099 67.513 20.1953 66.8984 20.1953C66.2734 20.1953 65.7135 20.0833 65.2188 19.8594C64.724 19.6354 64.3151 19.3568 63.9922 19.0234C63.6745 18.6849 63.4323 18.3359 63.2656 17.9766C63.1042 17.6172 63.0234 17.3203 63.0234 17.0859C63.0234 16.7839 63.1198 16.5417 63.3125 16.3594C63.5104 16.1719 63.7552 16.0781 64.0469 16.0781C64.1927 16.0781 64.3333 16.1224 64.4688 16.2109C64.6042 16.2943 64.6927 16.3958 64.7344 16.5156C65.0052 17.2396 65.2943 17.7786 65.6016 18.1328C65.9141 18.4818 66.3516 18.6562 66.9141 18.6562C67.237 18.6562 67.5469 18.5781 67.8438 18.4219C68.1458 18.2604 68.3932 18.0234 68.5859 17.7109C68.7839 17.3984 68.8828 17.0365 68.8828 16.625C68.8828 16.0156 68.7161 15.5391 68.3828 15.1953C68.0495 14.8464 67.5859 14.6719 66.9922 14.6719C66.888 14.6719 66.7266 14.6823 66.5078 14.7031C66.2891 14.724 66.1484 14.7344 66.0859 14.7344C65.7995 14.7344 65.5781 14.6641 65.4219 14.5234C65.2656 14.3776 65.1875 14.1771 65.1875 13.9219C65.1875 13.6719 65.2812 13.4714 65.4688 13.3203C65.6562 13.1641 65.9349 13.0859 66.3047 13.0859H66.625Z" fill="white"/>
<path d="M88.625 13.0859C89.1042 13.0859 89.5156 12.9453 89.8594 12.6641C90.2083 12.3828 90.3828 11.9792 90.3828 11.4531C90.3828 11.0521 90.2448 10.7083 89.9688 10.4219C89.6927 10.1302 89.3203 9.98438 88.8516 9.98438C88.5339 9.98438 88.2708 10.0286 88.0625 10.1172C87.8594 10.2057 87.6979 10.3229 87.5781 10.4688C87.4583 10.6146 87.3438 10.8021 87.2344 11.0312C87.1302 11.2604 87.0339 11.4766 86.9453 11.6797C86.8932 11.7891 86.7995 11.875 86.6641 11.9375C86.5286 12 86.3724 12.0312 86.1953 12.0312C85.987 12.0312 85.7943 11.9479 85.6172 11.7812C85.4453 11.6094 85.3594 11.3828 85.3594 11.1016C85.3594 10.8307 85.4401 10.5469 85.6016 10.25C85.7682 9.94792 86.0078 9.66146 86.3203 9.39062C86.638 9.11979 87.0312 8.90365 87.5 8.74219C87.9688 8.57552 88.4922 8.49219 89.0703 8.49219C89.5755 8.49219 90.0365 8.5625 90.4531 8.70312C90.8698 8.83854 91.2318 9.03646 91.5391 9.29688C91.8464 9.55729 92.0781 9.85938 92.2344 10.2031C92.3906 10.5469 92.4688 10.9167 92.4688 11.3125C92.4688 11.8333 92.3542 12.2812 92.125 12.6562C91.901 13.026 91.5781 13.388 91.1562 13.7422C91.5625 13.9609 91.9036 14.2109 92.1797 14.4922C92.4609 14.7734 92.6719 15.0859 92.8125 15.4297C92.9531 15.7682 93.0234 16.1354 93.0234 16.5312C93.0234 17.0052 92.9271 17.4635 92.7344 17.9062C92.5469 18.349 92.2682 18.7448 91.8984 19.0938C91.5286 19.4375 91.0885 19.7083 90.5781 19.9062C90.0729 20.099 89.513 20.1953 88.8984 20.1953C88.2734 20.1953 87.7135 20.0833 87.2188 19.8594C86.724 19.6354 86.3151 19.3568 85.9922 19.0234C85.6745 18.6849 85.4323 18.3359 85.2656 17.9766C85.1042 17.6172 85.0234 17.3203 85.0234 17.0859C85.0234 16.7839 85.1198 16.5417 85.3125 16.3594C85.5104 16.1719 85.7552 16.0781 86.0469 16.0781C86.1927 16.0781 86.3333 16.1224 86.4688 16.2109C86.6042 16.2943 86.6927 16.3958 86.7344 16.5156C87.0052 17.2396 87.2943 17.7786 87.6016 18.1328C87.9141 18.4818 88.3516 18.6562 88.9141 18.6562C89.237 18.6562 89.5469 18.5781 89.8438 18.4219C90.1458 18.2604 90.3932 18.0234 90.5859 17.7109C90.7839 17.3984 90.8828 17.0365 90.8828 16.625C90.8828 16.0156 90.7161 15.5391 90.3828 15.1953C90.0495 14.8464 89.5859 14.6719 88.9922 14.6719C88.888 14.6719 88.7266 14.6823 88.5078 14.7031C88.2891 14.724 88.1484 14.7344 88.0859 14.7344C87.7995 14.7344 87.5781 14.6641 87.4219 14.5234C87.2656 14.3776 87.1875 14.1771 87.1875 13.9219C87.1875 13.6719 87.2812 13.4714 87.4688 13.3203C87.6562 13.1641 87.9349 13.0859 88.3047 13.0859H88.625Z" fill="white"/>
<path d="M78.9717 16.5703L78.0049 15.1494L77.0137 16.5703C76.8704 16.7689 76.7484 16.9105 76.6475 16.9951C76.5498 17.0798 76.4245 17.1221 76.2715 17.1221C76.1022 17.1221 75.9574 17.07 75.8369 16.9658C75.7197 16.8584 75.6611 16.7363 75.6611 16.5996C75.6611 16.4596 75.7523 16.2594 75.9346 15.999L77.1406 14.2705L76.0713 12.8301C75.8857 12.5924 75.793 12.3857 75.793 12.21C75.793 12.0732 75.8483 11.9544 75.959 11.8535C76.0697 11.7526 76.2145 11.7021 76.3936 11.7021C76.5498 11.7021 76.6784 11.7461 76.7793 11.834C76.8835 11.9219 77.0039 12.0602 77.1406 12.249L78.0049 13.4307L78.8447 12.249C78.9847 12.0537 79.1051 11.9137 79.2061 11.8291C79.3102 11.7445 79.4388 11.7021 79.5918 11.7021C79.7676 11.7021 79.9124 11.7526 80.0264 11.8535C80.1436 11.9512 80.2021 12.07 80.2021 12.21C80.2021 12.3109 80.1777 12.4085 80.1289 12.5029C80.0833 12.5941 80.0117 12.7031 79.9141 12.8301L78.8447 14.2705L80.0508 15.999C80.2396 16.2692 80.334 16.4727 80.334 16.6094C80.334 16.7493 80.2754 16.8698 80.1582 16.9707C80.041 17.0716 79.8962 17.1221 79.7236 17.1221C79.5706 17.1221 79.4404 17.0781 79.333 16.9902C79.2288 16.9023 79.1084 16.7624 78.9717 16.5703Z" fill="white"/>
<defs>
<filter id="filter0_b_316_3515" x="-3" y="21" width="162" height="162" filterUnits="userSpaceOnUse" color-interpolation-filters="sRGB">
<feFlood flood-opacity="0" result="BackgroundImageFix"/>
<feGaussianBlur in="BackgroundImageFix" stdDeviation="1.5"/>
<feComposite in2="SourceAlpha" operator="in" result="effect1_backgroundBlur_316_3515"/>
<feBlend mode="normal" in="SourceGraphic" in2="effect1_backgroundBlur_316_3515" result="shape"/>
</filter>
</defs>
</svg>
