<svg width="164" height="189" viewBox="0 0 164 189" fill="none" xmlns="http://www.w3.org/2000/svg">
<rect x="0.25" y="25.25" width="163.5" height="163.5" rx="27.75" fill="#5570FD" fill-opacity="0.2" stroke="#4B61E9" stroke-width="0.5"/>
<path d="M4 55C4 40.6406 15.6406 29 30 29V55H4Z" fill="#191685"/>
<rect x="30" y="29" width="26" height="26" fill="#191685"/>
<rect x="56" y="29" width="26" height="26" fill="#191685"/>
<rect x="82" y="29" width="26" height="26" fill="#191685"/>
<rect x="108" y="29" width="26" height="26" fill="#191685"/>
<path d="M134 29C148.359 29 160 40.6406 160 55H134V29Z" fill="#191685"/>
<path d="M4 55H30V81H4V55Z" fill="#191685"/>
<rect x="30" y="55" width="26" height="26" fill="#191685"/>
<rect x="56" y="55" width="26" height="26" fill="#191685"/>
<rect x="82" y="55" width="26" height="26" fill="#191685"/>
<rect x="108" y="55" width="26" height="26" fill="#191685"/>
<path d="M134 55H160V81H134V55Z" fill="#191685"/>
<path d="M4 81H30V107H4V81Z" fill="#191685"/>
<rect x="30" y="81" width="26" height="26" fill="#191685"/>
<rect x="56" y="81" width="26" height="26" fill="#191685"/>
<rect x="82" y="81" width="26" height="26" fill="#191685"/>
<rect x="108" y="81" width="26" height="26" fill="#191685"/>
<path d="M134 81H160V107H134V81Z" fill="#191685"/>
<path d="M4 107H30V133H4V107Z" fill="#191685"/>
<rect x="30" y="107" width="26" height="26" fill="#191685"/>
<rect x="56" y="107" width="26" height="26" fill="#191685"/>
<rect x="82" y="107" width="26" height="26" fill="#191685"/>
<rect x="108" y="107" width="26" height="26" fill="#191685"/>
<path d="M134 107H160V133H134V107Z" fill="#191685"/>
<path d="M4 133H30V159H4V133Z" fill="#191685"/>
<rect x="30" y="133" width="26" height="26" fill="#191685"/>
<rect x="56" y="133" width="26" height="26" fill="#191685"/>
<rect x="82" y="133" width="26" height="26" fill="#191685"/>
<rect x="108" y="133" width="26" height="26" fill="#191685"/>
<path d="M134 133H160V159H134V133Z" fill="#191685"/>
<path d="M4 159H30V185C15.6406 185 4 173.359 4 159Z" fill="#191685"/>
<rect x="30" y="159" width="26" height="26" fill="#191685"/>
<rect x="56" y="159" width="26" height="26" fill="#191685"/>
<rect x="82" y="159" width="26" height="26" fill="#191685"/>
<rect x="108" y="159" width="26" height="26" fill="#191685"/>
<path d="M134 159H160C160 173.359 148.359 185 134 185V159Z" fill="#191685"/>
<line x1="30.25" y1="33.25" x2="30.25" y2="180.75" stroke="#E9E9E9" stroke-width="0.5" stroke-linecap="round" stroke-dasharray="3 3"/>
<line x1="56.25" y1="33.25" x2="56.25" y2="180.75" stroke="#E9E9E9" stroke-width="0.5" stroke-linecap="round" stroke-dasharray="3 3"/>
<line x1="82.25" y1="33.25" x2="82.25" y2="180.75" stroke="#E9E9E9" stroke-width="0.5" stroke-linecap="round" stroke-dasharray="3 3"/>
<line x1="108.25" y1="33.25" x2="108.25" y2="180.75" stroke="#E9E9E9" stroke-width="0.5" stroke-linecap="round" stroke-dasharray="3 3"/>
<line x1="134.25" y1="33.25" x2="134.25" y2="180.75" stroke="#E9E9E9" stroke-width="0.5" stroke-linecap="round" stroke-dasharray="3 3"/>
<line x1="8.25" y1="158.75" x2="155.75" y2="158.75" stroke="#E9E9E9" stroke-width="0.5" stroke-linecap="round" stroke-dasharray="3 3"/>
<line x1="8.25" y1="132.75" x2="155.75" y2="132.75" stroke="#E9E9E9" stroke-width="0.5" stroke-linecap="round" stroke-dasharray="3 3"/>
<line x1="8.25" y1="106.75" x2="155.75" y2="106.75" stroke="#E9E9E9" stroke-width="0.5" stroke-linecap="round" stroke-dasharray="3 3"/>
<line x1="8.25" y1="80.75" x2="155.75" y2="80.75" stroke="#E9E9E9" stroke-width="0.5" stroke-linecap="round" stroke-dasharray="3 3"/>
<line x1="8.25" y1="54.75" x2="155.75" y2="54.75" stroke="#E9E9E9" stroke-width="0.5" stroke-linecap="round" stroke-dasharray="3 3"/>
<rect x="33.8536" y="62.0007" width="5.15682" height="22.1273" rx="2.57841" transform="rotate(-45 33.8536 62.0007)" fill="#F3339E" stroke="#C20074" stroke-width="0.5" stroke-linecap="round"/>
<rect x="49.5" y="58.3536" width="5.15682" height="22.1273" rx="2.57841" transform="rotate(45 49.5 58.3536)" fill="#F3339E" stroke="#C20074" stroke-width="0.5" stroke-linecap="round"/>
<rect x="39.9392" y="67.5557" width="4.4058" height="0.631835" transform="rotate(-45 39.9392 67.5557)" fill="#F3339E"/>
<rect x="43.5" y="71.1152" width="4.4058" height="0.631835" transform="rotate(-45 43.5 71.1152)" fill="#F3339E"/>
<rect x="33.8536" y="140.001" width="5.15682" height="22.1273" rx="2.57841" transform="rotate(-45 33.8536 140.001)" fill="#F3339E" stroke="#C20074" stroke-width="0.5" stroke-linecap="round"/>
<rect x="49.5" y="136.354" width="5.15682" height="22.1273" rx="2.57841" transform="rotate(45 49.5 136.354)" fill="#F3339E" stroke="#C20074" stroke-width="0.5" stroke-linecap="round"/>
<rect x="39.9392" y="145.556" width="4.4058" height="0.631835" transform="rotate(-45 39.9392 145.556)" fill="#F3339E"/>
<rect x="43.5" y="149.115" width="4.4058" height="0.631835" transform="rotate(-45 43.5 149.115)" fill="#F3339E"/>
<rect x="59.8536" y="114.001" width="5.15682" height="22.1273" rx="2.57841" transform="rotate(-45 59.8536 114.001)" fill="#F3339E" stroke="#C20074" stroke-width="0.5" stroke-linecap="round"/>
<rect x="75.5" y="110.354" width="5.15682" height="22.1273" rx="2.57841" transform="rotate(45 75.5 110.354)" fill="#F3339E" stroke="#C20074" stroke-width="0.5" stroke-linecap="round"/>
<rect x="65.9392" y="119.556" width="4.4058" height="0.631835" transform="rotate(-45 65.9392 119.556)" fill="#F3339E"/>
<rect x="69.4999" y="123.115" width="4.4058" height="0.631835" transform="rotate(-45 69.4999 123.115)" fill="#F3339E"/>
<rect x="33.8536" y="88.0007" width="5.15682" height="22.1273" rx="2.57841" transform="rotate(-45 33.8536 88.0007)" fill="#F3339E" stroke="#C20074" stroke-width="0.5" stroke-linecap="round"/>
<rect x="49.5" y="84.3536" width="5.15682" height="22.1273" rx="2.57841" transform="rotate(45 49.5 84.3536)" fill="#F3339E" stroke="#C20074" stroke-width="0.5" stroke-linecap="round"/>
<rect x="39.9392" y="93.5557" width="4.4058" height="0.631835" transform="rotate(-45 39.9392 93.5557)" fill="#F3339E"/>
<rect x="43.5" y="97.1152" width="4.4058" height="0.631835" transform="rotate(-45 43.5 97.1152)" fill="#F3339E"/>
<circle cx="69.5" cy="94" r="9.75" fill="#F9BD13" stroke="#AF7E00" stroke-width="0.5"/>
<circle cx="69.5" cy="94" r="5.25" fill="#191685" stroke="#AF7E00" stroke-width="0.5"/>
<circle cx="42.5" cy="120" r="9.75" fill="#F9BD13" stroke="#AF7E00" stroke-width="0.5"/>
<circle cx="42.5" cy="120" r="5.25" fill="#191685" stroke="#AF7E00" stroke-width="0.5"/>
<circle cx="95.5" cy="68" r="9.75" fill="#F9BD13" stroke="#AF7E00" stroke-width="0.5"/>
<circle cx="95.5" cy="68" r="5.25" fill="#191685" stroke="#AF7E00" stroke-width="0.5"/>
<circle cx="95.5" cy="120" r="9.75" fill="#F9BD13" stroke="#AF7E00" stroke-width="0.5"/>
<circle cx="95.5" cy="120" r="5.25" fill="#191685" stroke="#AF7E00" stroke-width="0.5"/>
<circle cx="121.5" cy="42" r="9.75" fill="#F9BD13" stroke="#AF7E00" stroke-width="0.5"/>
<circle cx="121.5" cy="42" r="5.25" fill="#191685" stroke="#AF7E00" stroke-width="0.5"/>
<rect x="130.475" y="31" width="2" height="137.85" rx="1" transform="rotate(45 130.475 31)" fill="#FFD334"/>
<path d="M74.8909 0.289062H75.0191H75.1461H75.272H75.3966H75.52H75.6423H75.7634H75.8833H76.0021H76.1197H76.2362H76.3515H76.4657H76.5787H76.6906H76.8014H76.9111H77.0196H77.127H77.2333H77.3385H77.4426H77.5456H77.6476H77.7484H77.8482H77.9468H78.0444H78.141H78.2365H78.3309H78.4243H78.5166H78.6079H78.6981H78.7873H78.8755H78.9626H79.0488H79.1339H79.218H79.3011H79.3832H79.4644H79.5445H79.6236H79.7018H79.779H79.8552H79.9304H80.0047H80.078H80.1504H80.2218H80.2923H80.3619H80.4305H80.4982H80.5148H80.515H80.5152H80.5156H80.516H80.5166H80.5173H80.5181H80.519H80.52H80.5212H80.5224H80.5239H80.5252H80.5271H80.5284H80.5308H80.5321H80.5351H80.5361H80.5398H80.5406H80.545H80.5455H80.5507H80.5508H80.5565H80.557H80.5626H80.5637H80.5649H80.5691H80.571H80.576H80.5789H80.5833H80.5873H80.5909H80.5962H80.5989H80.6056H80.6073H80.6157H80.616H80.6251H80.6262H80.6308H80.6346H80.6374H80.6444H80.6491H80.6545H80.6614H80.665H80.6742H80.6758H80.6869H80.6877H80.6957H80.6984H80.7017H80.7102H80.7163H80.7223H80.7315H80.7347H80.7473H80.7474H80.7597H80.7604H80.7637H80.7737H80.7808H80.7873H80.7984H80.8012H80.8153H80.8167H80.8229H80.8298H80.8355H80.8445H80.855H80.8595H80.8747H80.8752H80.8851H80.8902H80.896H80.906H80.9174H80.922H80.9382H80.9395H80.9464H80.9547H80.9622H80.9714H80.9856H80.9884H81.0055H81.0068H81.0096H81.0229H81.0343H81.0405H81.0583H81.0597H81.0664H81.0763H81.0858H81.0946H81.1125H81.113H81.125H81.1316H81.14H81.1504H81.1681H81.1693H81.1828H81.1885H81.1969H81.2078H81.2264H81.2273H81.2397H81.2469H81.2566H81.2668H81.2867H81.2876H81.2958H81.3068H81.3192H81.3271H81.3475H81.351H81.3516H81.368H81.3847H81.3886H81.4053H81.4094H81.4185H81.4303H81.4513H81.453H81.4588H81.4724H81.4883H81.4937H81.5114H81.515H81.5244H81.5364H81.5579H81.5611H81.5632H81.5795H81.5987H81.6012H81.6142H81.6229H81.637H81.6448H81.6643H81.6667H81.676H81.6886H81.7106H81.7136H81.7159H81.7327H81.7548H81.7564H81.7621H81.777H81.7978H81.7992H81.8097H81.8214H81.84H81.8436H81.8565H81.8659H81.8829H81.8882H81.9026H81.9105H81.9266H81.9329H81.9478H81.9552H81.9712H81.9775H81.9922H81.9999H82.0165H82.0222H82.0358H82.0445H82.0626H82.0668H82.0787H82.089H82.1095H82.1113H82.1207H82.1335H82.1556H82.1573H82.162H82.1777H82.1998H82.2025H82.2059H82.2218H82.2422H82.2438H82.2553H82.2657H82.2812H82.2875H82.3055H82.3093H82.3194H82.331H82.3526H82.3566H82.3568H82.3741H82.3935H82.3955H82.4084H82.4169H82.4294H82.4381H82.4593H82.4612H82.4646H82.4803H82.4991H82.5012H82.5148H82.522H82.5328H82.5426H82.5632H82.5658H82.5692H82.5836H82.5981H82.6039H82.624H82.6245H82.6296H82.644H82.6605H82.6638H82.6807H82.6835H82.6906H82.703H82.72H82.7223H82.7377H82.7415H82.7488H82.7605H82.7768H82.7793H82.7956H82.7979H82.8041H82.8163H82.8308H82.8346H82.8526H82.8544H82.8568H82.8705H82.8821H82.8881H82.9055H82.9067H82.914H82.9227H82.9307H82.9397H82.954H82.9564H82.9729H82.9746H82.9766H82.9892H82.9986H83.0053H83.0199H83.021H83.036H83.0366H83.0406H83.0518H83.0607H83.0669H83.0801H83.0816H83.0961H83.0984H83.0989H83.1103H83.1171H83.1242H83.1347H83.1378H83.1512H83.1516H83.1616H83.1642H83.168H83.177H83.1837H83.1894H83.1988H83.2016H83.2134H83.2249H83.2257H83.2273H83.2361H83.2407H83.2469H83.2535H83.2574H83.2657H83.2676H83.2773H83.2775H83.2869H83.2884H83.2908H83.2961H83.2989H83.3049H83.3088H83.3133H83.3182H83.3213H83.3271H83.329H83.3354H83.3363H83.3432H83.3433H83.3498H83.3504H83.3559H83.3567H83.3571H83.3617H83.3633H83.3671H83.3689H83.372H83.3741H83.3765H83.3787H83.3807H83.3829H83.3844H83.3865H83.3877H83.3897H83.3905H83.3923H83.3929H83.3945H83.3949H83.3962H83.3965H83.3974H83.3976H83.3981H83.3982H83.3984H83.4236H83.4914H83.5601H83.6298H83.7004H83.772H83.8445H83.9179H83.9923H84.0677H84.144H84.2213H84.2996H84.3789H84.4591H84.5404H84.6226H84.7058H84.7901H84.8753H84.9616H85.0489H85.1372H85.2265H85.3169H85.4083H85.5008H85.5943H85.6888H85.7845H85.8811H85.9789H86.0777H86.1776H86.2786H86.3806H86.4838H86.588H86.6934H86.7998H86.9074H87.016H87.1258H87.2368H87.3488H87.462H87.5763H87.6918H87.8084H87.9261H88.0451H88.1651H88.2864H88.4088H88.5324H88.6572H88.7832H88.9103H89.0387H89.1682H89.299H89.431H89.5641H89.6985H89.8342H89.971H90.1091C95.9687 0.289062 99.9246 1.83364 103.096 4.14004C105.717 6.04532 107.805 8.46946 109.999 11.0169C110.476 11.5704 110.958 12.1298 111.451 12.6909C114.206 15.8242 117.299 18.9814 121.838 21.35C124.739 22.8635 128.221 24.0507 132.571 24.7109H132.397H132.118H131.835H131.55H131.263H130.973H130.681H130.387H130.09H129.79H129.489H129.185H128.878H128.57H128.259H127.946H127.631H127.313H126.994H126.672H126.348H126.022H125.694H125.363H125.031H124.696H124.36H124.022H123.681H123.339H122.994H122.648H122.3H121.95H121.598H121.244H120.888H120.531H120.172H119.811H119.448H119.083H118.717H118.349H117.98H117.608H117.235H116.861H116.485H116.107H115.728H115.347H114.965H114.581H114.196H113.809H113.421H113.031H112.64H112.247H111.854H111.459H111.062H110.664H110.265H109.865H109.463H109.061H108.657H108.251H107.845H107.437H107.029H106.619H106.208H105.796H105.383H104.969H104.554H104.138H103.721H103.303H102.884H102.465H102.044H101.622H101.2H100.777H100.352H99.9276H99.5019H99.0755H98.6483H98.2204H97.7918H97.3625H96.9326H96.502H96.0708H95.6389H95.2065H94.7736H94.3401H93.906H93.4715H93.0364H92.6009H92.165H91.7286H91.2918H90.8546H90.4171H89.9791H89.5409H89.1024H88.6635H88.2244H87.785H87.3455H86.9056H86.4656H86.0254H85.5851H85.1446H84.704H84.2633H83.8226H83.3817H82.9409H82.5H82.0591H81.6182H81.1774H80.7366H80.2959H79.8553H79.4148H78.9745H78.5343H78.0943H77.6545H77.2149H76.7755H76.3364H75.8976H75.459H75.0208H74.5829H74.1453H73.7082H73.2714H72.835H72.399H71.9635H71.5285H71.0939H70.6599H70.2264H69.7934H69.361H68.9292H68.498H68.0674H67.6374H67.2081H66.7795H66.3516H65.9245H65.498H65.0723H64.6475H64.2234H63.8001H63.3776H62.9561H62.5354H62.1156H61.6967H61.2787H60.8617H60.4457H60.0307H59.6166H59.2037H58.7917H58.3809H57.9711H57.5625H57.155H56.7486H56.3434H55.9394H55.5366H55.135H54.7347H54.3356H53.9379H53.5414H53.1463H52.7525H52.36H51.969H51.5794H51.1912H50.8044H50.4191H50.0353H49.6529H49.2721H48.8929H48.5152H48.139H47.7645H47.3916H47.0204H46.6507H46.2828H45.9166H45.5521H45.1893H44.8283H44.469H44.1115H43.7559H43.4021H43.0501H42.7H42.3519H42.0056H41.6612H41.3188H40.9784H40.6399H40.3035H39.9691H39.6367H39.3064H38.9782H38.6521H38.3282H38.0063H37.6867H37.3692H37.0539H36.7409H36.4301H36.1215H35.8153H35.5113H35.2096H34.9103H34.6134H34.3188H34.0267H33.7369H33.4496H33.1648H32.8824H32.6025H32.4663C36.8582 24.0509 40.4128 22.864 43.3964 21.3516C48.0661 18.9844 51.3174 15.8294 54.1794 12.6949C54.7986 12.0169 55.3982 11.3414 55.9893 10.6757C58.14 8.25313 60.1763 5.95942 62.6197 4.138C65.7152 1.8304 69.4595 0.289062 74.8909 0.289062Z" fill="#5570FD" fill-opacity="0.2" stroke="#4B61E9" stroke-width="0.578125"/>
<path d="M70.1406 13.8047C70.4948 13.3828 70.8802 13.0703 71.2969 12.8672C71.7135 12.6641 72.1797 12.5625 72.6953 12.5625C73.1901 12.5625 73.6458 12.6562 74.0625 12.8438C74.4844 13.026 74.8516 13.2891 75.1641 13.6328C75.4818 13.9714 75.7266 14.3724 75.8984 14.8359C76.0703 15.2995 76.1562 15.7839 76.1562 16.2891C76.1562 17.0234 75.987 17.6901 75.6484 18.2891C75.3151 18.888 74.8464 19.3568 74.2422 19.6953C73.6432 20.0286 72.9635 20.1953 72.2031 20.1953C71.3281 20.1953 70.5729 19.9818 69.9375 19.5547C69.3021 19.1276 68.8151 18.4974 68.4766 17.6641C68.1432 16.8255 67.9766 15.8021 67.9766 14.5938C67.9766 13.6094 68.0781 12.7292 68.2812 11.9531C68.4844 11.1771 68.776 10.5339 69.1562 10.0234C69.5365 9.51302 69.9974 9.1276 70.5391 8.86719C71.0807 8.60677 71.6979 8.47656 72.3906 8.47656C73.0573 8.47656 73.6432 8.60677 74.1484 8.86719C74.6589 9.1276 75.0417 9.45052 75.2969 9.83594C75.5573 10.2214 75.6875 10.5911 75.6875 10.9453C75.6875 11.1589 75.6068 11.3542 75.4453 11.5312C75.2839 11.7031 75.0781 11.7891 74.8281 11.7891C74.6094 11.7891 74.4062 11.7214 74.2188 11.5859C74.0312 11.4453 73.8932 11.2526 73.8047 11.0078C73.6849 10.6953 73.4948 10.4453 73.2344 10.2578C72.974 10.0651 72.6719 9.96875 72.3281 9.96875C72.0521 9.96875 71.776 10.0495 71.5 10.2109C71.2292 10.3672 71 10.5807 70.8125 10.8516C70.4323 11.4036 70.2083 12.388 70.1406 13.8047ZM72.25 18.6562C72.776 18.6562 73.2109 18.4427 73.5547 18.0156C73.8984 17.5833 74.0703 17.0182 74.0703 16.3203C74.0703 15.8464 73.9896 15.4401 73.8281 15.1016C73.6667 14.7578 73.4453 14.4974 73.1641 14.3203C72.8828 14.138 72.5729 14.0469 72.2344 14.0469C71.9115 14.0469 71.6016 14.1328 71.3047 14.3047C71.013 14.4766 70.776 14.7266 70.5938 15.0547C70.4167 15.3776 70.3281 15.7578 70.3281 16.1953C70.3281 16.8984 70.5104 17.4844 70.875 17.9531C71.2396 18.4219 71.6979 18.6562 72.25 18.6562Z" fill="white"/>
<path d="M92.1406 13.8047C92.4948 13.3828 92.8802 13.0703 93.2969 12.8672C93.7135 12.6641 94.1797 12.5625 94.6953 12.5625C95.1901 12.5625 95.6458 12.6562 96.0625 12.8438C96.4844 13.026 96.8516 13.2891 97.1641 13.6328C97.4818 13.9714 97.7266 14.3724 97.8984 14.8359C98.0703 15.2995 98.1562 15.7839 98.1562 16.2891C98.1562 17.0234 97.987 17.6901 97.6484 18.2891C97.3151 18.888 96.8464 19.3568 96.2422 19.6953C95.6432 20.0286 94.9635 20.1953 94.2031 20.1953C93.3281 20.1953 92.5729 19.9818 91.9375 19.5547C91.3021 19.1276 90.8151 18.4974 90.4766 17.6641C90.1432 16.8255 89.9766 15.8021 89.9766 14.5938C89.9766 13.6094 90.0781 12.7292 90.2812 11.9531C90.4844 11.1771 90.776 10.5339 91.1562 10.0234C91.5365 9.51302 91.9974 9.1276 92.5391 8.86719C93.0807 8.60677 93.6979 8.47656 94.3906 8.47656C95.0573 8.47656 95.6432 8.60677 96.1484 8.86719C96.6589 9.1276 97.0417 9.45052 97.2969 9.83594C97.5573 10.2214 97.6875 10.5911 97.6875 10.9453C97.6875 11.1589 97.6068 11.3542 97.4453 11.5312C97.2839 11.7031 97.0781 11.7891 96.8281 11.7891C96.6094 11.7891 96.4062 11.7214 96.2188 11.5859C96.0312 11.4453 95.8932 11.2526 95.8047 11.0078C95.6849 10.6953 95.4948 10.4453 95.2344 10.2578C94.974 10.0651 94.6719 9.96875 94.3281 9.96875C94.0521 9.96875 93.776 10.0495 93.5 10.2109C93.2292 10.3672 93 10.5807 92.8125 10.8516C92.4323 11.4036 92.2083 12.388 92.1406 13.8047ZM94.25 18.6562C94.776 18.6562 95.2109 18.4427 95.5547 18.0156C95.8984 17.5833 96.0703 17.0182 96.0703 16.3203C96.0703 15.8464 95.9896 15.4401 95.8281 15.1016C95.6667 14.7578 95.4453 14.4974 95.1641 14.3203C94.8828 14.138 94.5729 14.0469 94.2344 14.0469C93.9115 14.0469 93.6016 14.1328 93.3047 14.3047C93.013 14.4766 92.776 14.7266 92.5938 15.0547C92.4167 15.3776 92.3281 15.7578 92.3281 16.1953C92.3281 16.8984 92.5104 17.4844 92.875 17.9531C93.2396 18.4219 93.6979 18.6562 94.25 18.6562Z" fill="white"/>
<path d="M83.9717 16.5703L83.0049 15.1494L82.0137 16.5703C81.8704 16.7689 81.7484 16.9105 81.6475 16.9951C81.5498 17.0798 81.4245 17.1221 81.2715 17.1221C81.1022 17.1221 80.9574 17.07 80.8369 16.9658C80.7197 16.8584 80.6611 16.7363 80.6611 16.5996C80.6611 16.4596 80.7523 16.2594 80.9346 15.999L82.1406 14.2705L81.0713 12.8301C80.8857 12.5924 80.793 12.3857 80.793 12.21C80.793 12.0732 80.8483 11.9544 80.959 11.8535C81.0697 11.7526 81.2145 11.7021 81.3936 11.7021C81.5498 11.7021 81.6784 11.7461 81.7793 11.834C81.8835 11.9219 82.0039 12.0602 82.1406 12.249L83.0049 13.4307L83.8447 12.249C83.9847 12.0537 84.1051 11.9137 84.2061 11.8291C84.3102 11.7445 84.4388 11.7021 84.5918 11.7021C84.7676 11.7021 84.9124 11.7526 85.0264 11.8535C85.1436 11.9512 85.2021 12.07 85.2021 12.21C85.2021 12.3109 85.1777 12.4085 85.1289 12.5029C85.0833 12.5941 85.0117 12.7031 84.9141 12.8301L83.8447 14.2705L85.0508 15.999C85.2396 16.2692 85.334 16.4727 85.334 16.6094C85.334 16.7493 85.2754 16.8698 85.1582 16.9707C85.041 17.0716 84.8962 17.1221 84.7236 17.1221C84.5706 17.1221 84.4404 17.0781 84.333 16.9902C84.2288 16.9023 84.1084 16.7624 83.9717 16.5703Z" fill="white"/>
</svg>
