<svg width="164" height="189" viewBox="0 0 164 189" fill="none" xmlns="http://www.w3.org/2000/svg">
<path d="M74.8909 0.289062H75.0191H75.1461H75.272H75.3966H75.52H75.6423H75.7634H75.8833H76.0021H76.1197H76.2362H76.3515H76.4657H76.5787H76.6906H76.8014H76.9111H77.0196H77.127H77.2333H77.3385H77.4426H77.5456H77.6476H77.7484H77.8482H77.9468H78.0444H78.141H78.2365H78.3309H78.4243H78.5166H78.6079H78.6981H78.7873H78.8755H78.9626H79.0488H79.1339H79.218H79.3011H79.3832H79.4644H79.5445H79.6236H79.7018H79.779H79.8552H79.9304H80.0047H80.078H80.1504H80.2218H80.2923H80.3619H80.4305H80.4982H80.5148H80.515H80.5152H80.5156H80.516H80.5166H80.5173H80.5181H80.519H80.52H80.5212H80.5224H80.5239H80.5252H80.5271H80.5284H80.5308H80.5321H80.5351H80.5361H80.5398H80.5406H80.545H80.5455H80.5507H80.5508H80.5565H80.557H80.5626H80.5637H80.5649H80.5691H80.571H80.576H80.5789H80.5833H80.5873H80.5909H80.5962H80.5989H80.6056H80.6073H80.6157H80.616H80.6251H80.6262H80.6308H80.6346H80.6374H80.6444H80.6491H80.6545H80.6614H80.665H80.6742H80.6758H80.6869H80.6877H80.6957H80.6984H80.7017H80.7102H80.7163H80.7223H80.7315H80.7347H80.7473H80.7474H80.7597H80.7604H80.7637H80.7737H80.7808H80.7873H80.7984H80.8012H80.8153H80.8167H80.8229H80.8298H80.8355H80.8445H80.855H80.8595H80.8747H80.8752H80.8851H80.8902H80.896H80.906H80.9174H80.922H80.9382H80.9395H80.9464H80.9547H80.9622H80.9714H80.9856H80.9884H81.0055H81.0068H81.0096H81.0229H81.0343H81.0405H81.0583H81.0597H81.0664H81.0763H81.0858H81.0946H81.1125H81.113H81.125H81.1316H81.14H81.1504H81.1681H81.1693H81.1828H81.1885H81.1969H81.2078H81.2264H81.2273H81.2397H81.2469H81.2566H81.2668H81.2867H81.2876H81.2958H81.3068H81.3192H81.3271H81.3475H81.351H81.3516H81.368H81.3847H81.3886H81.4053H81.4094H81.4185H81.4303H81.4513H81.453H81.4588H81.4724H81.4883H81.4937H81.5114H81.515H81.5244H81.5364H81.5579H81.5611H81.5632H81.5795H81.5987H81.6012H81.6142H81.6229H81.637H81.6448H81.6643H81.6667H81.676H81.6886H81.7106H81.7136H81.7159H81.7327H81.7548H81.7564H81.7621H81.777H81.7978H81.7992H81.8097H81.8214H81.84H81.8436H81.8565H81.8659H81.8829H81.8882H81.9026H81.9105H81.9266H81.9329H81.9478H81.9552H81.9712H81.9775H81.9922H81.9999H82.0165H82.0222H82.0358H82.0445H82.0626H82.0668H82.0787H82.089H82.1095H82.1113H82.1207H82.1335H82.1556H82.1573H82.162H82.1777H82.1998H82.2025H82.2059H82.2218H82.2422H82.2438H82.2553H82.2657H82.2812H82.2875H82.3055H82.3093H82.3194H82.331H82.3526H82.3566H82.3568H82.3741H82.3935H82.3955H82.4084H82.4169H82.4294H82.4381H82.4593H82.4612H82.4646H82.4803H82.4991H82.5012H82.5148H82.522H82.5328H82.5426H82.5632H82.5658H82.5692H82.5836H82.5981H82.6039H82.624H82.6245H82.6296H82.644H82.6605H82.6638H82.6807H82.6835H82.6906H82.703H82.72H82.7223H82.7377H82.7415H82.7488H82.7605H82.7768H82.7793H82.7956H82.7979H82.8041H82.8163H82.8308H82.8346H82.8526H82.8544H82.8568H82.8705H82.8821H82.8881H82.9055H82.9067H82.914H82.9227H82.9307H82.9397H82.954H82.9564H82.9729H82.9746H82.9766H82.9892H82.9986H83.0053H83.0199H83.021H83.036H83.0366H83.0406H83.0518H83.0607H83.0669H83.0801H83.0816H83.0961H83.0984H83.0989H83.1103H83.1171H83.1242H83.1347H83.1378H83.1512H83.1516H83.1616H83.1642H83.168H83.177H83.1837H83.1894H83.1988H83.2016H83.2134H83.2249H83.2257H83.2273H83.2361H83.2407H83.2469H83.2535H83.2574H83.2657H83.2676H83.2773H83.2775H83.2869H83.2884H83.2908H83.2961H83.2989H83.3049H83.3088H83.3133H83.3182H83.3213H83.3271H83.329H83.3354H83.3363H83.3432H83.3433H83.3498H83.3504H83.3559H83.3567H83.3571H83.3617H83.3633H83.3671H83.3689H83.372H83.3741H83.3765H83.3787H83.3807H83.3829H83.3844H83.3865H83.3877H83.3897H83.3905H83.3923H83.3929H83.3945H83.3949H83.3962H83.3965H83.3974H83.3976H83.3981H83.3982H83.3984H83.4236H83.4914H83.5601H83.6298H83.7004H83.772H83.8445H83.9179H83.9923H84.0677H84.144H84.2213H84.2996H84.3789H84.4591H84.5404H84.6226H84.7058H84.7901H84.8753H84.9616H85.0489H85.1372H85.2265H85.3169H85.4083H85.5008H85.5943H85.6888H85.7845H85.8811H85.9789H86.0777H86.1776H86.2786H86.3806H86.4838H86.588H86.6934H86.7998H86.9074H87.016H87.1258H87.2368H87.3488H87.462H87.5763H87.6918H87.8084H87.9261H88.0451H88.1651H88.2864H88.4088H88.5324H88.6572H88.7832H88.9103H89.0387H89.1682H89.299H89.431H89.5641H89.6985H89.8342H89.971H90.1091C95.9687 0.289062 99.9246 1.83364 103.096 4.14004C105.717 6.04532 107.805 8.46946 109.999 11.0169C110.476 11.5704 110.958 12.1298 111.451 12.6909C114.206 15.8242 117.299 18.9814 121.838 21.35C124.739 22.8635 128.221 24.0507 132.571 24.7109H132.397H132.118H131.835H131.55H131.263H130.973H130.681H130.387H130.09H129.79H129.489H129.185H128.878H128.57H128.259H127.946H127.631H127.313H126.994H126.672H126.348H126.022H125.694H125.363H125.031H124.696H124.36H124.022H123.681H123.339H122.994H122.648H122.3H121.95H121.598H121.244H120.888H120.531H120.172H119.811H119.448H119.083H118.717H118.349H117.98H117.608H117.235H116.861H116.485H116.107H115.728H115.347H114.965H114.581H114.196H113.809H113.421H113.031H112.64H112.247H111.854H111.459H111.062H110.664H110.265H109.865H109.463H109.061H108.657H108.251H107.845H107.437H107.029H106.619H106.208H105.796H105.383H104.969H104.554H104.138H103.721H103.303H102.884H102.465H102.044H101.622H101.2H100.777H100.352H99.9276H99.5019H99.0755H98.6483H98.2204H97.7918H97.3625H96.9326H96.502H96.0708H95.6389H95.2065H94.7736H94.3401H93.906H93.4715H93.0364H92.6009H92.165H91.7286H91.2918H90.8546H90.4171H89.9791H89.5409H89.1024H88.6635H88.2244H87.785H87.3455H86.9056H86.4656H86.0254H85.5851H85.1446H84.704H84.2633H83.8226H83.3817H82.9409H82.5H82.0591H81.6182H81.1774H80.7366H80.2959H79.8553H79.4148H78.9745H78.5343H78.0943H77.6545H77.2149H76.7755H76.3364H75.8976H75.459H75.0208H74.5829H74.1453H73.7082H73.2714H72.835H72.399H71.9635H71.5285H71.0939H70.6599H70.2264H69.7934H69.361H68.9292H68.498H68.0674H67.6374H67.2081H66.7795H66.3516H65.9245H65.498H65.0723H64.6475H64.2234H63.8001H63.3776H62.9561H62.5354H62.1156H61.6967H61.2787H60.8617H60.4457H60.0307H59.6166H59.2037H58.7917H58.3809H57.9711H57.5625H57.155H56.7486H56.3434H55.9394H55.5366H55.135H54.7347H54.3356H53.9379H53.5414H53.1463H52.7525H52.36H51.969H51.5794H51.1912H50.8044H50.4191H50.0353H49.6529H49.2721H48.8929H48.5152H48.139H47.7645H47.3916H47.0204H46.6507H46.2828H45.9166H45.5521H45.1893H44.8283H44.469H44.1115H43.7559H43.4021H43.0501H42.7H42.3519H42.0056H41.6612H41.3188H40.9784H40.6399H40.3035H39.9691H39.6367H39.3064H38.9782H38.6521H38.3282H38.0063H37.6867H37.3692H37.0539H36.7409H36.4301H36.1215H35.8153H35.5113H35.2096H34.9103H34.6134H34.3188H34.0267H33.7369H33.4496H33.1648H32.8824H32.6025H32.4663C36.8582 24.0509 40.4128 22.864 43.3964 21.3516C48.0661 18.9844 51.3174 15.8294 54.1794 12.6949C54.7986 12.0169 55.3982 11.3414 55.9893 10.6757C58.14 8.25313 60.1763 5.95942 62.6197 4.138C65.7152 1.8304 69.4595 0.289062 74.8909 0.289062Z" fill="#5570FD" fill-opacity="0.2" stroke="#4B61E9" stroke-width="0.578125"/>
<path d="M73.7578 14.8672C73.4141 15.2734 73.0286 15.5807 72.6016 15.7891C72.1797 15.9922 71.7109 16.0938 71.1953 16.0938C70.7057 16.0938 70.2474 16 69.8203 15.8125C69.3984 15.6198 69.0312 15.3542 68.7188 15.0156C68.4115 14.6719 68.1745 14.2734 68.0078 13.8203C67.8411 13.362 67.7578 12.8828 67.7578 12.3828C67.7578 11.8464 67.8516 11.3385 68.0391 10.8594C68.2266 10.375 68.4948 9.95573 68.8438 9.60156C69.1927 9.2474 69.6068 8.97135 70.0859 8.77344C70.5703 8.57552 71.1042 8.47656 71.6875 8.47656C72.3594 8.47656 72.9583 8.59896 73.4844 8.84375C74.0104 9.08854 74.4531 9.44531 74.8125 9.91406C75.1719 10.3776 75.4479 10.9635 75.6406 11.6719C75.8333 12.3802 75.9297 13.1823 75.9297 14.0781C75.9297 15.0781 75.8281 15.9609 75.625 16.7266C75.4219 17.487 75.125 18.1276 74.7344 18.6484C74.349 19.1641 73.8854 19.5495 73.3438 19.8047C72.8021 20.0547 72.1875 20.1797 71.5 20.1797C70.8229 20.1797 70.2344 20.0521 69.7344 19.7969C69.2344 19.5365 68.8542 19.2161 68.5938 18.8359C68.3333 18.4505 68.2031 18.0807 68.2031 17.7266C68.2031 17.5078 68.2839 17.3125 68.4453 17.1406C68.6068 16.9688 68.8125 16.8828 69.0625 16.8828C69.2917 16.8828 69.4974 16.9479 69.6797 17.0781C69.862 17.2031 70 17.3932 70.0938 17.6484C70.2083 17.9609 70.3984 18.2135 70.6641 18.4062C70.9297 18.5938 71.2292 18.6875 71.5625 18.6875C71.8594 18.6875 72.1406 18.612 72.4062 18.4609C72.6719 18.3099 72.8984 18.0964 73.0859 17.8203C73.4609 17.263 73.6849 16.2786 73.7578 14.8672ZM73.5781 12.4766C73.5781 12.1224 73.5286 11.7969 73.4297 11.5C73.3359 11.1979 73.2005 10.9375 73.0234 10.7188C72.8516 10.5 72.6432 10.3281 72.3984 10.2031C72.1589 10.0781 71.8958 10.0156 71.6094 10.0156C71.1146 10.0156 70.6953 10.2292 70.3516 10.6562C70.0078 11.0781 69.8359 11.638 69.8359 12.3359C69.8359 13.0286 70.0078 13.5807 70.3516 13.9922C70.6953 14.4036 71.1302 14.6094 71.6562 14.6094C71.9792 14.6094 72.2865 14.526 72.5781 14.3594C72.875 14.1875 73.1146 13.9401 73.2969 13.6172C73.4844 13.2943 73.5781 12.9141 73.5781 12.4766Z" fill="white"/>
<path d="M83.9717 16.5703L83.0049 15.1494L82.0137 16.5703C81.8704 16.7689 81.7484 16.9105 81.6475 16.9951C81.5498 17.0798 81.4245 17.1221 81.2715 17.1221C81.1022 17.1221 80.9574 17.07 80.8369 16.9658C80.7197 16.8584 80.6611 16.7363 80.6611 16.5996C80.6611 16.4596 80.7523 16.2594 80.9346 15.999L82.1406 14.2705L81.0713 12.8301C80.8857 12.5924 80.793 12.3857 80.793 12.21C80.793 12.0732 80.8483 11.9544 80.959 11.8535C81.0697 11.7526 81.2145 11.7021 81.3936 11.7021C81.5498 11.7021 81.6784 11.7461 81.7793 11.834C81.8835 11.9219 82.0039 12.0602 82.1406 12.249L83.0049 13.4307L83.8447 12.249C83.9847 12.0537 84.1051 11.9137 84.2061 11.8291C84.3102 11.7445 84.4388 11.7021 84.5918 11.7021C84.7676 11.7021 84.9124 11.7526 85.0264 11.8535C85.1436 11.9512 85.2021 12.07 85.2021 12.21C85.2021 12.3109 85.1777 12.4085 85.1289 12.5029C85.0833 12.5941 85.0117 12.7031 84.9141 12.8301L83.8447 14.2705L85.0508 15.999C85.2396 16.2692 85.334 16.4727 85.334 16.6094C85.334 16.7493 85.2754 16.8698 85.1582 16.9707C85.041 17.0716 84.8962 17.1221 84.7236 17.1221C84.5706 17.1221 84.4404 17.0781 84.333 16.9902C84.2288 16.9023 84.1084 16.7624 83.9717 16.5703Z" fill="white"/>
<path d="M95.7578 14.8672C95.4141 15.2734 95.0286 15.5807 94.6016 15.7891C94.1797 15.9922 93.7109 16.0938 93.1953 16.0938C92.7057 16.0938 92.2474 16 91.8203 15.8125C91.3984 15.6198 91.0312 15.3542 90.7188 15.0156C90.4115 14.6719 90.1745 14.2734 90.0078 13.8203C89.8411 13.362 89.7578 12.8828 89.7578 12.3828C89.7578 11.8464 89.8516 11.3385 90.0391 10.8594C90.2266 10.375 90.4948 9.95573 90.8438 9.60156C91.1927 9.2474 91.6068 8.97135 92.0859 8.77344C92.5703 8.57552 93.1042 8.47656 93.6875 8.47656C94.3594 8.47656 94.9583 8.59896 95.4844 8.84375C96.0104 9.08854 96.4531 9.44531 96.8125 9.91406C97.1719 10.3776 97.4479 10.9635 97.6406 11.6719C97.8333 12.3802 97.9297 13.1823 97.9297 14.0781C97.9297 15.0781 97.8281 15.9609 97.625 16.7266C97.4219 17.487 97.125 18.1276 96.7344 18.6484C96.349 19.1641 95.8854 19.5495 95.3438 19.8047C94.8021 20.0547 94.1875 20.1797 93.5 20.1797C92.8229 20.1797 92.2344 20.0521 91.7344 19.7969C91.2344 19.5365 90.8542 19.2161 90.5938 18.8359C90.3333 18.4505 90.2031 18.0807 90.2031 17.7266C90.2031 17.5078 90.2839 17.3125 90.4453 17.1406C90.6068 16.9688 90.8125 16.8828 91.0625 16.8828C91.2917 16.8828 91.4974 16.9479 91.6797 17.0781C91.862 17.2031 92 17.3932 92.0938 17.6484C92.2083 17.9609 92.3984 18.2135 92.6641 18.4062C92.9297 18.5938 93.2292 18.6875 93.5625 18.6875C93.8594 18.6875 94.1406 18.612 94.4062 18.4609C94.6719 18.3099 94.8984 18.0964 95.0859 17.8203C95.4609 17.263 95.6849 16.2786 95.7578 14.8672ZM95.5781 12.4766C95.5781 12.1224 95.5286 11.7969 95.4297 11.5C95.3359 11.1979 95.2005 10.9375 95.0234 10.7188C94.8516 10.5 94.6432 10.3281 94.3984 10.2031C94.1589 10.0781 93.8958 10.0156 93.6094 10.0156C93.1146 10.0156 92.6953 10.2292 92.3516 10.6562C92.0078 11.0781 91.8359 11.638 91.8359 12.3359C91.8359 13.0286 92.0078 13.5807 92.3516 13.9922C92.6953 14.4036 93.1302 14.6094 93.6562 14.6094C93.9792 14.6094 94.2865 14.526 94.5781 14.3594C94.875 14.1875 95.1146 13.9401 95.2969 13.6172C95.4844 13.2943 95.5781 12.9141 95.5781 12.4766Z" fill="white"/>
<rect x="0.25" y="25.25" width="163.5" height="163.5" rx="20.75" fill="#5570FD" fill-opacity="0.2" stroke="#4B61E9" stroke-width="0.5"/>
<path d="M5.5 47.5C5.5 38.1112 13.1112 30.5 22.5 30.5V47.5H5.5Z" fill="#191685"/>
<rect x="22.5" y="30.5" width="17" height="17" fill="#191685"/>
<rect x="39.5" y="30.5" width="17" height="17" fill="#191685"/>
<rect x="56.5" y="30.5" width="17" height="17" fill="#191685"/>
<rect x="73.5" y="30.5" width="17" height="17" fill="#191685"/>
<rect x="90.5" y="30.5" width="17" height="17" fill="#191685"/>
<rect x="107.5" y="30.5" width="17" height="17" fill="#191685"/>
<rect x="124.5" y="30.5" width="17" height="17" fill="#191685"/>
<path d="M141.5 30.5C150.889 30.5 158.5 38.1112 158.5 47.5H141.5V30.5Z" fill="#191685"/>
<path d="M5.5 47.5H22.5V64.5H5.5V47.5Z" fill="#191685"/>
<rect x="22.5" y="47.5" width="17" height="17" fill="#191685"/>
<rect x="39.5" y="47.5" width="17" height="17" fill="#191685"/>
<rect x="56.5" y="47.5" width="17" height="17" fill="#191685"/>
<rect x="73.5" y="47.5" width="17" height="17" fill="#191685"/>
<rect x="90.5" y="47.5" width="17" height="17" fill="#191685"/>
<rect x="107.5" y="47.5" width="17" height="17" fill="#191685"/>
<rect x="124.5" y="47.5" width="17" height="17" fill="#191685"/>
<path d="M141.5 47.5H158.5V64.5H141.5V47.5Z" fill="#191685"/>
<path d="M5.5 64.5H22.5V81.5H5.5V64.5Z" fill="#191685"/>
<rect x="22.5" y="64.5" width="17" height="17" fill="#191685"/>
<rect x="39.5" y="64.5" width="17" height="17" fill="#191685"/>
<rect x="56.5" y="64.5" width="17" height="17" fill="#191685"/>
<rect x="73.5" y="64.5" width="17" height="17" fill="#191685"/>
<rect x="90.5" y="64.5" width="17" height="17" fill="#191685"/>
<rect x="107.5" y="64.5" width="17" height="17" fill="#191685"/>
<rect x="124.5" y="64.5" width="17" height="17" fill="#191685"/>
<path d="M141.5 64.5H158.5V81.5H141.5V64.5Z" fill="#191685"/>
<path d="M5.5 81.5H22.5V98.5H5.5V81.5Z" fill="#191685"/>
<rect x="22.5" y="81.5" width="17" height="17" fill="#191685"/>
<rect x="39.5" y="81.5" width="17" height="17" fill="#191685"/>
<rect x="56.5" y="81.5" width="17" height="17" fill="#191685"/>
<rect x="73.5" y="81.5" width="17" height="17" fill="#191685"/>
<rect x="90.5" y="81.5" width="17" height="17" fill="#191685"/>
<rect x="107.5" y="81.5" width="17" height="17" fill="#191685"/>
<rect x="124.5" y="81.5" width="17" height="17" fill="#191685"/>
<path d="M141.5 81.5H158.5V98.5H141.5V81.5Z" fill="#191685"/>
<path d="M5.5 98.5H22.5V115.5H5.5V98.5Z" fill="#191685"/>
<rect x="22.5" y="98.5" width="17" height="17" fill="#191685"/>
<rect x="39.5" y="98.5" width="17" height="17" fill="#191685"/>
<rect x="56.5" y="98.5" width="17" height="17" fill="#191685"/>
<rect x="73.5" y="98.5" width="17" height="17" fill="#191685"/>
<rect x="90.5" y="98.5" width="17" height="17" fill="#191685"/>
<rect x="107.5" y="98.5" width="17" height="17" fill="#191685"/>
<rect x="124.5" y="98.5" width="17" height="17" fill="#191685"/>
<path d="M141.5 98.5H158.5V115.5H141.5V98.5Z" fill="#191685"/>
<path d="M5.5 115.5H22.5V132.5H5.5V115.5Z" fill="#191685"/>
<rect x="22.5" y="115.5" width="17" height="17" fill="#191685"/>
<rect x="39.5" y="115.5" width="17" height="17" fill="#191685"/>
<rect x="56.5" y="115.5" width="17" height="17" fill="#191685"/>
<rect x="73.5" y="115.5" width="17" height="17" fill="#191685"/>
<rect x="90.5" y="115.5" width="17" height="17" fill="#191685"/>
<rect x="107.5" y="115.5" width="17" height="17" fill="#191685"/>
<rect x="124.5" y="115.5" width="17" height="17" fill="#191685"/>
<path d="M141.5 115.5H158.5V132.5H141.5V115.5Z" fill="#191685"/>
<path d="M5.5 132.5H22.5V149.5H5.5V132.5Z" fill="#191685"/>
<rect x="22.5" y="132.5" width="17" height="17" fill="#191685"/>
<rect x="39.5" y="132.5" width="17" height="17" fill="#191685"/>
<rect x="56.5" y="132.5" width="17" height="17" fill="#191685"/>
<rect x="73.5" y="132.5" width="17" height="17" fill="#191685"/>
<rect x="90.5" y="132.5" width="17" height="17" fill="#191685"/>
<rect x="107.5" y="132.5" width="17" height="17" fill="#191685"/>
<rect x="124.5" y="132.5" width="17" height="17" fill="#191685"/>
<path d="M141.5 132.5H158.5V149.5H141.5V132.5Z" fill="#191685"/>
<path d="M5.5 149.5H22.5V166.5H5.5V149.5Z" fill="#191685"/>
<rect x="22.5" y="149.5" width="17" height="17" fill="#191685"/>
<rect x="39.5" y="149.5" width="17" height="17" fill="#191685"/>
<rect x="56.5" y="149.5" width="17" height="17" fill="#191685"/>
<rect x="73.5" y="149.5" width="17" height="17" fill="#191685"/>
<rect x="90.5" y="149.5" width="17" height="17" fill="#191685"/>
<rect x="107.5" y="149.5" width="17" height="17" fill="#191685"/>
<rect x="124.5" y="149.5" width="17" height="17" fill="#191685"/>
<path d="M141.5 149.5H158.5V166.5H141.5V149.5Z" fill="#191685"/>
<path d="M5.5 166.5H22.5V183.5C13.1112 183.5 5.5 175.889 5.5 166.5Z" fill="#191685"/>
<rect x="22.5" y="166.5" width="17" height="17" fill="#191685"/>
<rect x="39.5" y="166.5" width="17" height="17" fill="#191685"/>
<rect x="56.5" y="166.5" width="17" height="17" fill="#191685"/>
<rect x="73.5" y="166.5" width="17" height="17" fill="#191685"/>
<rect x="90.5" y="166.5" width="17" height="17" fill="#191685"/>
<rect x="107.5" y="166.5" width="17" height="17" fill="#191685"/>
<rect x="124.5" y="166.5" width="17" height="17" fill="#191685"/>
<path d="M141.5 166.5H158.5C158.5 175.889 150.889 183.5 141.5 183.5V166.5Z" fill="#191685"/>
<line x1="22.75" y1="34.75" x2="22.75" y2="179.25" stroke="#E9E9E9" stroke-width="0.5" stroke-linecap="round" stroke-dasharray="3 3"/>
<line x1="39.75" y1="34.75" x2="39.75" y2="179.25" stroke="#E9E9E9" stroke-width="0.5" stroke-linecap="round" stroke-dasharray="3 3"/>
<line x1="56.75" y1="34.75" x2="56.75" y2="179.25" stroke="#E9E9E9" stroke-width="0.5" stroke-linecap="round" stroke-dasharray="3 3"/>
<line x1="73.75" y1="34.75" x2="73.75" y2="179.25" stroke="#E9E9E9" stroke-width="0.5" stroke-linecap="round" stroke-dasharray="3 3"/>
<line x1="90.75" y1="34.75" x2="90.75" y2="179.25" stroke="#E9E9E9" stroke-width="0.5" stroke-linecap="round" stroke-dasharray="3 3"/>
<line x1="107.75" y1="34.75" x2="107.75" y2="179.25" stroke="#E9E9E9" stroke-width="0.5" stroke-linecap="round" stroke-dasharray="3 3"/>
<line x1="124.75" y1="34.75" x2="124.75" y2="179.25" stroke="#E9E9E9" stroke-width="0.5" stroke-linecap="round" stroke-dasharray="3 3"/>
<line x1="141.75" y1="34.75" x2="141.75" y2="179.25" stroke="#E9E9E9" stroke-width="0.5" stroke-linecap="round" stroke-dasharray="3 3"/>
<line x1="9.75" y1="166.25" x2="154.25" y2="166.25" stroke="#E9E9E9" stroke-width="0.5" stroke-linecap="round" stroke-dasharray="3 3"/>
<line x1="9.75" y1="149.25" x2="154.25" y2="149.25" stroke="#E9E9E9" stroke-width="0.5" stroke-linecap="round" stroke-dasharray="3 3"/>
<line x1="9.75" y1="132.25" x2="154.25" y2="132.25" stroke="#E9E9E9" stroke-width="0.5" stroke-linecap="round" stroke-dasharray="3 3"/>
<line x1="9.75" y1="115.25" x2="154.25" y2="115.25" stroke="#E9E9E9" stroke-width="0.5" stroke-linecap="round" stroke-dasharray="3 3"/>
<line x1="9.75" y1="98.25" x2="154.25" y2="98.25" stroke="#E9E9E9" stroke-width="0.5" stroke-linecap="round" stroke-dasharray="3 3"/>
<line x1="9.75" y1="81.25" x2="154.25" y2="81.25" stroke="#E9E9E9" stroke-width="0.5" stroke-linecap="round" stroke-dasharray="3 3"/>
<line x1="9.75" y1="64.25" x2="154.25" y2="64.25" stroke="#E9E9E9" stroke-width="0.5" stroke-linecap="round" stroke-dasharray="3 3"/>
<line x1="9.75" y1="47.25" x2="154.25" y2="47.25" stroke="#E9E9E9" stroke-width="0.5" stroke-linecap="round" stroke-dasharray="3 3"/>
<rect x="42.3536" y="69.1006" width="3.17694" height="14.2077" rx="1.58847" transform="rotate(-45 42.3536 69.1006)" fill="#F3339E" stroke="#C20074" stroke-width="0.5" stroke-linecap="round"/>
<rect x="52.4" y="66.8536" width="3.17694" height="14.2077" rx="1.58847" transform="rotate(45 52.4 66.8536)" fill="#F3339E" stroke="#C20074" stroke-width="0.5" stroke-linecap="round"/>
<rect x="46.1855" y="72.7112" width="2.86377" height="0.410693" transform="rotate(-45 46.1855 72.7112)" fill="#F3339E"/>
<rect x="48.4999" y="75.0249" width="2.86377" height="0.410693" transform="rotate(-45 48.4999 75.0249)" fill="#F3339E"/>
<rect x="127.354" y="120.101" width="3.17694" height="14.2077" rx="1.58847" transform="rotate(-45 127.354 120.101)" fill="#F3339E" stroke="#C20074" stroke-width="0.5" stroke-linecap="round"/>
<rect x="137.4" y="117.854" width="3.17694" height="14.2077" rx="1.58847" transform="rotate(45 137.4 117.854)" fill="#F3339E" stroke="#C20074" stroke-width="0.5" stroke-linecap="round"/>
<rect x="131.185" y="123.711" width="2.86377" height="0.410693" transform="rotate(-45 131.185 123.711)" fill="#F3339E"/>
<rect x="133.5" y="126.025" width="2.86377" height="0.410693" transform="rotate(-45 133.5 126.025)" fill="#F3339E"/>
<rect x="59.3536" y="69.1006" width="3.17694" height="14.2077" rx="1.58847" transform="rotate(-45 59.3536 69.1006)" fill="#F3339E" stroke="#C20074" stroke-width="0.5" stroke-linecap="round"/>
<rect x="69.4" y="66.8536" width="3.17694" height="14.2077" rx="1.58847" transform="rotate(45 69.4 66.8536)" fill="#F3339E" stroke="#C20074" stroke-width="0.5" stroke-linecap="round"/>
<rect x="63.1855" y="72.7112" width="2.86377" height="0.410693" transform="rotate(-45 63.1855 72.7112)" fill="#F3339E"/>
<rect x="65.4999" y="75.0249" width="2.86377" height="0.410693" transform="rotate(-45 65.4999 75.0249)" fill="#F3339E"/>
<rect x="76.3536" y="69.1006" width="3.17694" height="14.2077" rx="1.58847" transform="rotate(-45 76.3536 69.1006)" fill="#F3339E" stroke="#C20074" stroke-width="0.5" stroke-linecap="round"/>
<rect x="86.4" y="66.8536" width="3.17694" height="14.2077" rx="1.58847" transform="rotate(45 86.4 66.8536)" fill="#F3339E" stroke="#C20074" stroke-width="0.5" stroke-linecap="round"/>
<rect x="80.1855" y="72.7112" width="2.86377" height="0.410693" transform="rotate(-45 80.1855 72.7112)" fill="#F3339E"/>
<rect x="82.4999" y="75.0249" width="2.86377" height="0.410693" transform="rotate(-45 82.4999 75.0249)" fill="#F3339E"/>
<rect x="76.3536" y="103.101" width="3.17694" height="14.2077" rx="1.58847" transform="rotate(-45 76.3536 103.101)" fill="#F3339E" stroke="#C20074" stroke-width="0.5" stroke-linecap="round"/>
<rect x="86.4" y="100.854" width="3.17694" height="14.2077" rx="1.58847" transform="rotate(45 86.4 100.854)" fill="#F3339E" stroke="#C20074" stroke-width="0.5" stroke-linecap="round"/>
<rect x="80.1855" y="106.711" width="2.86377" height="0.410693" transform="rotate(-45 80.1855 106.711)" fill="#F3339E"/>
<rect x="82.4999" y="109.025" width="2.86377" height="0.410693" transform="rotate(-45 82.4999 109.025)" fill="#F3339E"/>
<rect x="110.354" y="103.101" width="3.17694" height="14.2077" rx="1.58847" transform="rotate(-45 110.354 103.101)" fill="#F3339E" stroke="#C20074" stroke-width="0.5" stroke-linecap="round"/>
<rect x="120.4" y="100.854" width="3.17694" height="14.2077" rx="1.58847" transform="rotate(45 120.4 100.854)" fill="#F3339E" stroke="#C20074" stroke-width="0.5" stroke-linecap="round"/>
<rect x="114.185" y="106.711" width="2.86377" height="0.410693" transform="rotate(-45 114.185 106.711)" fill="#F3339E"/>
<rect x="116.5" y="109.025" width="2.86377" height="0.410693" transform="rotate(-45 116.5 109.025)" fill="#F3339E"/>
<rect x="93.3536" y="86.1006" width="3.17694" height="14.2077" rx="1.58847" transform="rotate(-45 93.3536 86.1006)" fill="#F3339E" stroke="#C20074" stroke-width="0.5" stroke-linecap="round"/>
<rect x="103.4" y="83.8536" width="3.17694" height="14.2077" rx="1.58847" transform="rotate(45 103.4 83.8536)" fill="#F3339E" stroke="#C20074" stroke-width="0.5" stroke-linecap="round"/>
<rect x="97.1855" y="89.7112" width="2.86377" height="0.410693" transform="rotate(-45 97.1855 89.7112)" fill="#F3339E"/>
<rect x="99.4999" y="92.0249" width="2.86377" height="0.410693" transform="rotate(-45 99.4999 92.0249)" fill="#F3339E"/>
<circle cx="65" cy="90" r="6.25" fill="#F9BD13" stroke="#AF7E00" stroke-width="0.5"/>
<circle cx="65" cy="90" r="3.25" fill="#191685" stroke="#AF7E00" stroke-width="0.5"/>
<circle cx="65" cy="107" r="6.25" fill="#F9BD13" stroke="#AF7E00" stroke-width="0.5"/>
<circle cx="65" cy="107" r="3.25" fill="#191685" stroke="#AF7E00" stroke-width="0.5"/>
<circle cx="65" cy="124" r="6.25" fill="#F9BD13" stroke="#AF7E00" stroke-width="0.5"/>
<circle cx="65" cy="124" r="3.25" fill="#191685" stroke="#AF7E00" stroke-width="0.5"/>
<circle cx="65" cy="141" r="6.25" fill="#F9BD13" stroke="#AF7E00" stroke-width="0.5"/>
<circle cx="65" cy="141" r="3.25" fill="#191685" stroke="#AF7E00" stroke-width="0.5"/>
<circle cx="65" cy="158" r="6.25" fill="#F9BD13" stroke="#AF7E00" stroke-width="0.5"/>
<circle cx="65" cy="158" r="3.25" fill="#191685" stroke="#AF7E00" stroke-width="0.5"/>
<circle cx="99" cy="73" r="6.25" fill="#F9BD13" stroke="#AF7E00" stroke-width="0.5"/>
<circle cx="99" cy="73" r="3.25" fill="#191685" stroke="#AF7E00" stroke-width="0.5"/>
<circle cx="99" cy="107" r="6.25" fill="#F9BD13" stroke="#AF7E00" stroke-width="0.5"/>
<circle cx="99" cy="107" r="3.25" fill="#191685" stroke="#AF7E00" stroke-width="0.5"/>
<circle cx="65" cy="56" r="6.25" fill="#F9BD13" stroke="#AF7E00" stroke-width="0.5"/>
<circle cx="65" cy="56" r="3.25" fill="#191685" stroke="#AF7E00" stroke-width="0.5"/>
<rect x="64" y="81" width="2" height="85" rx="1" fill="#FFD334"/>
</svg>
