<svg width="48" height="48" viewBox="0 0 48 48" fill="none" xmlns="http://www.w3.org/2000/svg">
<circle cx="24" cy="24" r="24" fill="#191685"/>
<path d="M37.3333 22.8334H34.2999C33.2499 21.55 31.9665 20.5 30.4499 19.6834L33.4833 16.65C33.9499 16.8834 34.4165 17 34.9999 17C36.9833 17 38.4999 15.4834 38.4999 13.5C38.4999 11.6334 36.9833 10 34.9999 10C33.0165 10 31.4999 11.6334 31.4999 13.5C31.4999 14.0834 31.6165 14.55 31.8499 15.0166C31.6165 15.25 28.3499 18.4 28.2333 18.75C25.8999 18.05 23.3334 18.05 20.8834 18.75C20.65 18.4 17.5 15.25 17.15 15.0166C17.3834 14.55 17.5 14.0834 17.5 13.5C17.5 11.6334 15.9834 10 14 10C12.0166 10 10.5 11.5166 10.5 13.5C10.5 15.4834 12.0166 17 14 17C14.5834 17 15.05 16.8834 15.5166 16.65L18.55 19.6834C17.0334 20.5 15.75 21.55 14.7 22.8334H11.6666C10.9666 22.8334 10.5 23.3 10.5 24C10.5 24.6999 10.9666 25.1665 11.6666 25.1665H13.0666C12.25 26.9165 11.6666 28.8999 11.6666 31C11.6666 31.7 12.25 32.1666 12.8332 32.1666H17.4998V35.6666H16.3334C15.6334 35.6666 15.1668 36.1332 15.1668 36.8332C15.1668 37.5332 15.6334 37.9998 16.3334 37.9998H21C21.7 37.9998 22.1666 37.5332 22.1666 36.8332C22.1666 36.1332 21.7 35.6666 21 35.6666H19.8334V32.1666H29.1668V35.6666H28.0002C27.3002 35.6666 26.8336 36.1332 26.8336 36.8332C26.8336 37.5332 27.3002 37.9998 28.0002 37.9998H32.6668C33.3668 37.9998 33.8334 37.5332 33.8334 36.8332C33.8334 36.1332 33.3668 35.6666 32.6668 35.6666H31.5002V32.1666H36.1668C36.7502 32.1666 37.3334 31.7 37.3334 31C37.3334 28.9 36.75 26.9166 35.9334 25.1665H37.3334C38.0334 25.1665 38.5 24.6999 38.5 24C38.5 23.3 38.0334 22.8334 37.3334 22.8334H37.3333ZM20.9999 26.3333C20.2999 26.3333 19.8333 25.8667 19.8333 25.1667C19.8333 24.4667 20.2999 24.0002 20.9999 24.0002C21.6999 24.0002 22.1665 24.4667 22.1665 25.1667C22.1665 25.8665 21.6999 26.3333 20.9999 26.3333ZM27.9998 26.3333C27.2998 26.3333 26.8332 25.8667 26.8332 25.1667C26.8332 24.4667 27.2998 24.0002 27.9998 24.0002C28.6998 24.0002 29.1664 24.4667 29.1664 25.1667C29.1664 25.8665 28.6998 26.3333 27.9998 26.3333Z" fill="#FAF9F8"/>
</svg>
