<svg width="32" height="32" viewBox="0 0 32 32" fill="none" xmlns="http://www.w3.org/2000/svg">
<path d="M27.7734 10.6801L19.04 3.69344C17.3334 2.33344 14.6667 2.32011 12.9734 3.68011L4.24003 10.6801C2.9867 11.6801 2.2267 13.6801 2.49337 15.2534L4.17337 25.3068C4.56003 27.5601 6.65337 29.3334 8.93336 29.3334H23.0667C25.32 29.3334 27.4534 27.5201 27.84 25.2934L29.52 15.2401C29.76 13.6801 29 11.6801 27.7734 10.6801ZM17 24.0001C17 24.5468 16.5467 25.0001 16 25.0001C15.4534 25.0001 15 24.5468 15 24.0001V20.0001C15 19.4534 15.4534 19.0001 16 19.0001C16.5467 19.0001 17 19.4534 17 20.0001V24.0001Z" fill="white"/>
</svg>
