<svg width="32" height="32" viewBox="0 0 32 32" fill="none" xmlns="http://www.w3.org/2000/svg">
<path d="M16.0001 2.66675C8.64008 2.66675 2.66675 8.64008 2.66675 16.0001C2.66675 23.3601 8.64008 29.3334 16.0001 29.3334C23.3601 29.3334 29.3334 23.3601 29.3334 16.0001C29.3334 8.64008 23.3601 2.66675 16.0001 2.66675ZM8.80008 14.9734C9.02675 13.3867 9.73342 11.9601 10.8401 10.8401C13.5067 8.18675 17.7067 8.04008 20.5601 10.3601V9.09342C20.5601 8.54675 21.0134 8.09342 21.5601 8.09342C22.1067 8.09342 22.5601 8.54675 22.5601 9.09342V12.6534C22.5601 13.2001 22.1067 13.6534 21.5601 13.6534H18.0001C17.4534 13.6534 17.0001 13.2001 17.0001 12.6534C17.0001 12.1067 17.4534 11.6534 18.0001 11.6534H19.0001C16.9334 10.2134 14.0801 10.4134 12.2401 12.2534C11.4401 13.0534 10.9334 14.0934 10.7601 15.2534C10.6934 15.7467 10.2667 16.1067 9.77341 16.1067C9.72008 16.1067 9.68008 16.1067 9.62675 16.0934C9.10675 16.0267 8.72008 15.5201 8.80008 14.9734ZM21.1601 21.1601C19.7334 22.5867 17.8667 23.2934 16.0001 23.2934C14.3734 23.2934 12.7601 22.7201 11.4267 21.6401V22.8934C11.4267 23.4401 10.9734 23.8934 10.4267 23.8934C9.88008 23.8934 9.42675 23.4401 9.42675 22.8934V19.3334C9.42675 18.7867 9.88008 18.3334 10.4267 18.3334H13.9867C14.5334 18.3334 14.9867 18.7867 14.9867 19.3334C14.9867 19.8801 14.5334 20.3334 13.9867 20.3334H12.9867C15.0534 21.7734 17.9067 21.5734 19.7467 19.7334C20.5467 18.9334 21.0534 17.8934 21.2267 16.7334C21.3067 16.1867 21.8001 15.8001 22.3601 15.8801C22.9067 15.9601 23.2801 16.4667 23.2134 17.0134C22.9734 18.6267 22.2667 20.0534 21.1601 21.1601Z" fill="white"/>
</svg>
