<svg width="72" height="68" viewBox="0 0 72 68" fill="none" xmlns="http://www.w3.org/2000/svg">
<path fill-rule="evenodd" clip-rule="evenodd" d="M41.7073 67.2151C25.2187 67.2151 11.8105 53.8069 11.8105 37.3184C11.8105 20.8298 25.2187 7.42162 41.7073 7.42162C58.1958 7.42162 71.604 20.8298 71.604 37.3184C71.604 53.7979 58.1958 67.2151 41.7073 67.2151ZM31.3436 32.4149C28.7571 32.4149 26.4311 30.7804 25.542 28.3556C25.3983 27.9515 25.6049 27.5024 26.009 27.3588C26.4131 27.2151 26.8622 27.4216 27.0059 27.8258C27.6615 29.6399 29.4037 30.8612 31.3346 30.8612C33.2654 30.8612 35.0077 29.6399 35.6633 27.8258C35.807 27.4216 36.256 27.2151 36.6601 27.3588C37.0643 27.5024 37.2708 27.9515 37.1271 28.3556C36.256 30.7804 33.93 32.4149 31.3436 32.4149ZM52.071 32.4149C49.4845 32.4149 47.1586 30.7804 46.2695 28.3556C46.1258 27.9515 46.3323 27.5024 46.7365 27.3588C47.1406 27.2151 47.5896 27.4216 47.7333 27.8258C48.3889 29.6399 50.1312 30.8612 52.062 30.8612C53.9929 30.8612 55.7351 29.6399 56.3907 27.8258C56.5344 27.4216 56.9834 27.2151 57.3876 27.3588C57.7917 27.5024 57.9982 27.9515 57.8546 28.3556C56.9924 30.7804 54.6574 32.4149 52.071 32.4149ZM29.9336 56.0162C28.811 56.0162 27.7423 55.4773 27.0687 54.5792C26.8083 54.229 26.8801 53.744 27.2304 53.4836C27.5806 53.2232 28.0656 53.295 28.326 53.6453C28.5506 53.9506 28.8559 54.1751 29.1882 54.3098C29.6642 47.8168 35.0975 42.6798 41.7073 42.6798C48.3171 42.6798 53.7504 47.8168 54.2264 54.3008C54.5676 54.1661 54.864 53.9326 55.0885 53.6363C55.3489 53.286 55.8339 53.2142 56.1841 53.4746C56.5344 53.7351 56.6062 54.22 56.3458 54.5703C55.6722 55.4683 54.6035 56.0072 53.481 56.0072C52.3584 56.0072 51.2897 55.4683 50.6161 54.5703C50.3557 54.22 50.4275 53.7351 50.7778 53.4746C51.128 53.2142 51.613 53.286 51.8734 53.6363C52.08 53.9147 52.3584 54.1302 52.6637 54.2739C52.1788 48.661 47.4549 44.2425 41.7162 44.2425C35.9776 44.2425 31.2537 48.661 30.7688 54.2739C31.0741 54.1392 31.3525 53.9147 31.5591 53.6453C31.8195 53.295 32.3045 53.2232 32.6547 53.4836C33.005 53.744 33.0768 54.229 32.8164 54.5792C32.1338 55.4773 31.0651 56.0162 29.9336 56.0162ZM25.7755 25.1765C24.9224 25.1765 23.9884 25.0867 22.9915 24.8801C22.5694 24.7903 22.3 24.3772 22.3808 23.9551C22.4706 23.533 22.8748 23.2546 23.3058 23.3444C30.8317 24.8801 33.3911 19.1325 33.4181 19.0696C33.5887 18.6744 34.0467 18.4858 34.4419 18.6565C34.837 18.8271 35.0256 19.2851 34.855 19.6803C34.8281 19.7611 32.4123 25.1765 25.7755 25.1765ZM57.639 25.1765C51.0023 25.1765 48.5955 19.7521 48.5685 19.6982C48.3979 19.3031 48.5865 18.8451 48.9816 18.6744C49.3768 18.5038 49.8348 18.6834 50.0054 19.0786C50.1132 19.321 52.6368 24.8801 60.1177 23.3534C60.5398 23.2636 60.9529 23.542 61.0427 23.9641C61.1325 24.3862 60.8541 24.7993 60.432 24.8891C59.4172 25.0866 58.4922 25.1765 57.639 25.1765Z" fill="#FFFFFE"/>
<path fill-rule="evenodd" clip-rule="evenodd" d="M65.6767 10.0171C63.1351 10.0171 61.0696 7.9515 61.0696 5.40996C61.0696 2.86843 63.1351 0.802864 65.6767 0.802864C68.2182 0.802864 70.2838 2.86843 70.2838 5.40996C70.2838 7.9515 68.2182 10.0171 65.6767 10.0171Z" fill="#FFFFFE"/>
<path fill-rule="evenodd" clip-rule="evenodd" d="M55.9147 8.14907C53.939 8.14907 52.3314 6.54154 52.3314 4.56578C52.3314 2.59003 53.939 0.982475 55.9147 0.982475C57.8905 0.982475 59.498 2.59003 59.498 4.56578C59.498 6.54154 57.8905 8.14907 55.9147 8.14907Z" fill="#FFFFFE"/>
<path fill-rule="evenodd" clip-rule="evenodd" d="M4.99414 57.5698C4.18587 57.5698 3.39557 57.3543 2.69508 56.9501C0.494811 55.6749 -0.259569 52.855 1.00671 50.6547C1.82395 49.2357 3.35965 48.3467 5.00312 48.3467C5.81138 48.3467 6.60168 48.5622 7.30217 48.9663C9.50244 50.2416 10.2568 53.0615 8.99054 55.2618C8.1733 56.6897 6.6376 57.5698 4.99414 57.5698Z" fill="#FFFFFE"/>
<path fill-rule="evenodd" clip-rule="evenodd" d="M13.0229 62.15C12.3943 62.15 11.7836 61.9883 11.2358 61.674C9.52942 60.6861 8.9367 58.4948 9.92458 56.7795C10.5622 55.6749 11.7477 54.9924 13.0319 54.9924C13.6605 54.9924 14.2712 55.154 14.8191 55.4683C15.6453 55.9443 16.238 56.7167 16.4895 57.6417C16.7409 58.5667 16.6062 59.5276 16.1302 60.3628C15.4926 61.4674 14.3072 62.15 13.0229 62.15Z" fill="#FFFFFE"/>
</svg>
