<svg width="72" height="68" viewBox="0 0 72 68" fill="none" xmlns="http://www.w3.org/2000/svg">
<path fill-rule="evenodd" clip-rule="evenodd" d="M41.7074 67.2061C25.2188 67.2061 11.8107 53.7979 11.8107 37.3094C11.8107 20.8208 25.2188 7.41264 41.7074 7.41264C58.1959 7.41264 71.6041 20.8208 71.6041 37.3094C71.6131 53.7979 58.1959 67.2061 41.7074 67.2061ZM41.7074 55.5671C36.3729 55.5671 31.8017 52.2173 29.9876 47.5204C29.9517 47.4486 29.9247 47.3767 29.9068 47.3049C29.4218 45.9668 29.1524 44.5298 29.1524 43.0211C29.1524 42.7517 29.2961 42.4912 29.5296 42.3565C29.7631 42.2128 30.0504 42.2038 30.2929 42.3296C30.3378 42.3565 35.0168 44.7454 41.6984 44.7454C45.6409 44.7454 49.4937 43.9281 53.1578 42.3026C53.4003 42.1949 53.6787 42.2218 53.9032 42.3655C54.1277 42.5092 54.2534 42.7517 54.2534 43.0211C54.2624 49.9362 48.6315 55.5671 41.7074 55.5671ZM30.7959 44.2514C30.8857 45.0507 31.0563 45.8141 31.3077 46.5505C34.1097 47.691 42.4618 50.3493 52.134 46.5056C52.3765 45.7692 52.5471 45.0058 52.6369 44.2155C49.1254 45.5985 45.4523 46.299 41.7074 46.299C36.6064 46.299 32.6728 45.0148 30.7959 44.2514ZM32.2238 48.5532C34.1367 51.8132 37.6751 54.0045 41.7164 54.0045C45.7757 54.0045 49.332 51.7862 51.2359 48.4993C47.8233 49.6578 44.5902 50.0709 41.7164 50.0709C37.6751 50.0709 34.3522 49.2627 32.2238 48.5532ZM26.2786 27.5114C26.1888 27.5114 26.0989 27.4935 26.0091 27.4665C25.605 27.3228 25.3985 26.8738 25.5421 26.4697C26.4223 24.0449 28.7572 22.4104 31.3437 22.4104C33.9301 22.4104 36.2561 24.0449 37.1452 26.4697C37.2889 26.8738 37.0823 27.3228 36.6782 27.4665C36.2741 27.6102 35.825 27.4037 35.6813 26.9995C35.0257 25.1854 33.2835 23.9641 31.3527 23.9641C29.4218 23.9641 27.6796 25.1854 27.024 26.9995C26.8982 27.3139 26.6019 27.5114 26.2786 27.5114ZM47.015 27.5114C46.9252 27.5114 46.8354 27.4935 46.7456 27.4665C46.3414 27.3228 46.1349 26.8738 46.2786 26.4697C47.1587 24.0449 49.4937 22.4104 52.0801 22.4104C54.6665 22.4104 56.9925 24.0449 57.8816 26.4697C58.0253 26.8738 57.8187 27.3228 57.4146 27.4665C57.0105 27.6102 56.5615 27.4037 56.4178 26.9995C55.7622 25.1854 54.0199 23.9641 52.0891 23.9641C50.1582 23.9641 48.416 25.1854 47.7604 26.9995C47.6346 27.3139 47.3293 27.5114 47.015 27.5114Z" fill="#FFFFFE"/>
<path fill-rule="evenodd" clip-rule="evenodd" d="M65.6769 10.017C63.1354 10.017 61.0698 7.95149 61.0698 5.40996C61.0698 2.86842 63.1354 0.802856 65.6769 0.802856C68.2184 0.802856 70.284 2.86842 70.284 5.40996C70.284 7.94251 68.2184 10.017 65.6769 10.017Z" fill="#FFFFFE"/>
<path fill-rule="evenodd" clip-rule="evenodd" d="M55.9148 8.14009C53.9391 8.14009 52.3315 6.53255 52.3315 4.55679C52.3315 2.58104 53.9391 0.973495 55.9148 0.973495C57.8906 0.973495 59.4981 2.58104 59.4981 4.55679C59.4981 6.53255 57.8906 8.14009 55.9148 8.14009Z" fill="#FFFFFE"/>
<path fill-rule="evenodd" clip-rule="evenodd" d="M5.00317 57.5698C4.19491 57.5698 3.4046 57.3543 2.70411 56.9502C0.503838 55.6749 -0.250533 52.855 1.01574 50.6547C1.83299 49.2357 3.36869 48.3466 5.01215 48.3466C5.82041 48.3466 6.61071 48.5622 7.31121 48.9663C9.51148 50.2416 10.2659 53.0615 8.99958 55.2618C8.17336 56.6897 6.64664 57.5698 5.00317 57.5698Z" fill="#FFFFFE"/>
<path fill-rule="evenodd" clip-rule="evenodd" d="M13.0318 62.15C12.4032 62.15 11.7925 61.9883 11.2447 61.674C9.53834 60.6861 8.94561 58.4948 9.93348 56.7795C10.5711 55.6749 11.7566 54.9924 13.0408 54.9924C13.6695 54.9924 14.2801 55.154 14.828 55.4683C15.6542 55.9443 16.2469 56.7166 16.4984 57.6417C16.7498 58.5667 16.6151 59.5276 16.1391 60.3628C15.4925 61.4585 14.3071 62.15 13.0318 62.15Z" fill="#FFFFFE"/>
</svg>
