<svg width="171" height="226" viewBox="0 0 171 226" fill="none" xmlns="http://www.w3.org/2000/svg">
<path d="M27.9816 27.92L68.8616 26.8L68.6216 32.16L57.4216 33.28L52.4616 80.32L43.6616 81.12L39.6616 35.04L28.4616 36.16L27.9816 27.92Z" fill="#E9E9E9"/>
<path d="M83.1113 81.12L78.5513 28L97.5913 26.8L91.9113 80.32L83.1113 81.12Z" fill="#E9E9E9"/>
<path d="M127.22 74.16C132.82 74.16 138.18 73.2 143.3 71.28L146.02 79.92C141.7 81.2533 137.3 81.92 132.82 81.92C128.34 81.92 124.34 81.44 120.82 80.48C117.353 79.52 114.686 78.2667 112.82 76.72C111.913 72.24 111.46 67.8133 111.46 63.44C111.46 54.5333 113.14 46.4533 116.5 39.2C119.86 31.9467 123.726 26.88 128.1 24L143.54 33.76C136.18 38.4533 130.34 44.4267 126.02 51.68C121.7 58.9333 119.54 66.24 119.54 73.6C121.833 73.9733 124.393 74.16 127.22 74.16Z" fill="#E9E9E9"/>
<path d="M60.2804 102.168L76.6324 101.72L76.5364 103.864L72.0564 104.312L70.0724 123.128L66.5524 123.448L64.9524 105.016L60.4724 105.464L60.2804 102.168ZM76.3354 123L82.3194 101.72L90.0634 102.2L94.2234 123L91.3434 123.48L89.1354 118.168L80.6234 118.872L79.5354 123.48L76.3354 123ZM83.7274 105.752L81.1994 116.408L88.4314 116.472L83.9834 105.752H83.7274ZM104.357 120.664C106.597 120.664 108.741 120.28 110.789 119.512L111.877 122.968C110.149 123.501 108.389 123.768 106.597 123.768C104.805 123.768 103.205 123.576 101.797 123.192C100.41 122.808 99.3435 122.307 98.5969 121.688C98.2342 119.896 98.0529 118.125 98.0529 116.376C98.0529 112.813 98.7249 109.581 100.069 106.68C101.413 103.779 102.96 101.752 104.709 100.6L110.885 104.504C107.941 106.381 105.605 108.771 103.877 111.672C102.149 114.573 101.285 117.496 101.285 120.44C102.202 120.589 103.226 120.664 104.357 120.664Z" fill="#E9E9E9"/>
<rect x="54.8203" y="126.896" width="17.6369" height="89.0081" rx="8.81844" transform="rotate(19.2402 54.8203 126.896)" fill="#F3339E"/>
<rect x="13.9111" y="162.18" width="17.6369" height="70.5475" rx="8.81844" transform="rotate(-70.7598 13.9111 162.18)" fill="#F3339E"/>
<circle cx="110.407" cy="171.642" r="30.469" fill="#F9BD13"/>
<circle cx="110.407" cy="171.642" r="14.7345" fill="#232599" stroke="#AF7E00"/>
<path d="M166.072 191.642L142.612 192.182L139.792 152.642L166.252 151.802L166.072 155.822L153.412 157.322L151.852 169.742L164.632 169.622L164.932 175.022L151.372 174.002L149.752 187.382L166.312 185.462L166.072 191.642Z" fill="#E9E9E9"/>
</svg>
