<svg width="32" height="32" viewBox="0 0 32 32" fill="none" xmlns="http://www.w3.org/2000/svg">
<path d="M30.6666 14.6667H27.1999C25.9999 13.2 24.5332 12 22.7999 11.0667L26.2666 7.59997C26.7999 7.86671 27.3332 7.99997 27.9999 7.99997C30.2666 7.99997 31.9999 6.26672 31.9999 3.99999C31.9999 1.86674 30.2666 0 27.9999 0C25.7332 0 23.9999 1.86674 23.9999 3.99999C23.9999 4.66673 24.1332 5.19998 24.3999 5.73324C24.1332 5.99998 20.3999 9.59997 20.2667 9.99996C17.5999 9.19997 14.6667 9.19997 11.8667 9.99996C11.6 9.59997 7.99997 5.99998 7.59997 5.73324C7.86671 5.19998 7.99997 4.66673 7.99997 3.99999C7.99997 1.86674 6.26672 0 3.99999 0C1.73325 0 0 1.73325 0 3.99999C0 6.26672 1.73325 7.99997 3.99999 7.99997C4.66673 7.99997 5.19998 7.86671 5.73324 7.59997L9.19997 11.0667C7.46672 12 5.99998 13.2 4.79998 14.6667H1.33325C0.533255 14.6667 0 15.1999 0 15.9999C0 16.7999 0.533255 17.3332 1.33325 17.3332H2.93325C1.99999 19.3332 1.33325 21.5999 1.33325 24C1.33325 24.8 1.99999 25.3333 2.6665 25.3333H7.99974V29.3333H6.66672C5.86672 29.3333 5.33347 29.8665 5.33347 30.6665C5.33347 31.4665 5.86672 31.9998 6.66672 31.9998H12C12.8 31.9998 13.3332 31.4665 13.3332 30.6665C13.3332 29.8665 12.8 29.3333 12 29.3333H10.6667V25.3333H21.3335V29.3333H20.0003C19.2003 29.3333 18.667 29.8665 18.667 30.6665C18.667 31.4665 19.2003 31.9998 20.0003 31.9998H25.3335C26.1335 31.9998 26.6668 31.4665 26.6668 30.6665C26.6668 29.8665 26.1335 29.3333 25.3335 29.3333H24.0003V25.3333H29.3335C30.0002 25.3333 30.6667 24.8 30.6667 24C30.6667 21.6 30 19.3333 29.0668 17.3332H30.6667C31.4667 17.3332 32 16.7999 32 15.9999C32 15.1999 31.4667 14.6667 30.6667 14.6667H30.6666ZM11.9998 18.6667C11.1998 18.6667 10.6666 18.1334 10.6666 17.3334C10.6666 16.5334 11.1998 16.0002 11.9998 16.0002C12.7998 16.0002 13.3331 16.5334 13.3331 17.3334C13.3331 18.1332 12.7998 18.6667 11.9998 18.6667ZM19.9998 18.6667C19.1998 18.6667 18.6666 18.1334 18.6666 17.3334C18.6666 16.5334 19.1998 16.0002 19.9998 16.0002C20.7998 16.0002 21.3331 16.5334 21.3331 17.3334C21.3331 18.1332 20.7998 18.6667 19.9998 18.6667Z" fill="white"/>
</svg>
